<?xml version="1.0" encoding="UTF-8" standalone="no"?>
<!-- Generator: Gravit.io -->

<svg
   xmlns:dc="http://purl.org/dc/elements/1.1/"
   xmlns:cc="http://creativecommons.org/ns#"
   xmlns:rdf="http://www.w3.org/1999/02/22-rdf-syntax-ns#"
   xmlns:svg="http://www.w3.org/2000/svg"
   xmlns="http://www.w3.org/2000/svg"
   xmlns:sodipodi="http://sodipodi.sourceforge.net/DTD/sodipodi-0.dtd"
   xmlns:inkscape="http://www.inkscape.org/namespaces/inkscape"
   style="isolation:isolate"
   viewBox="0 0 1024 1024"
   width="1024"
   height="1024"
   version="1.1"
   id="svg11"
   sodipodi:docname="Github.svg"
   inkscape:version="0.92.2 (5c3e80d, 2017-08-06)">
  <metadata
     id="metadata15">
    <rdf:RDF>
      <cc:Work
         rdf:about="">
        <dc:format>image/svg+xml</dc:format>
        <dc:type
           rdf:resource="http://purl.org/dc/dcmitype/StillImage" />
      </cc:Work>
    </rdf:RDF>
  </metadata>
  <sodipodi:namedview
     pagecolor="#ffffff"
     bordercolor="#666666"
     borderopacity="1"
     objecttolerance="10"
     gridtolerance="10"
     guidetolerance="10"
     inkscape:pageopacity="0"
     inkscape:pageshadow="2"
     inkscape:window-width="1920"
     inkscape:window-height="1025"
     id="namedview13"
     showgrid="false"
     inkscape:zoom="0.4609375"
     inkscape:cx="-324.56792"
     inkscape:cy="272.85964"
     inkscape:window-x="0"
     inkscape:window-y="27"
     inkscape:window-maximized="1"
     inkscape:current-layer="svg11" />
  <defs
     id="defs5">
    <clipPath
       id="_clipPath_gHlMKYXC1WbYNSBS0on3IfXHjzkIp1Na">
      <rect
         width="1024"
         height="1024"
         id="rect2" />
    </clipPath>
  </defs>
  <g
     clip-path="url(#_clipPath_gHlMKYXC1WbYNSBS0on3IfXHjzkIp1Na)"
     id="g9">
    <path
       d="M 512,0 C 229.25,0 0,229.25 0,512 c 0,226.25 146.688,418.125 350.156,485.812 25.594,4.688 34.938,-11.125 34.938,-24.625 0,-12.188 -0.469,-52.562 -0.719,-95.312 C 242,908.812 211.906,817.5 211.906,817.5 c -23.312,-59.125 -56.844,-74.875 -56.844,-74.875 -46.531,-31.75 3.53,-31.125 3.53,-31.125 51.406,3.562 78.47,52.75 78.47,52.75 45.688,78.25 119.875,55.625 149,42.5 4.654,-33 17.904,-55.625 32.5,-68.375 C 304.906,725.438 185.344,681.5 185.344,485.312 c 0,-55.938 19.969,-101.562 52.656,-137.406 -5.219,-13 -22.844,-65.094 5.062,-135.562 0,0 42.938,-13.75 140.812,52.5 40.812,-11.406 84.594,-17.031 128.125,-17.219 43.5,0.188 87.312,5.875 128.188,17.281 97.688,-66.312 140.688,-52.5 140.688,-52.5 28,70.531 10.375,122.562 5.125,135.5 32.812,35.844 52.625,81.469 52.625,137.406 0,196.688 -119.75,240 -233.812,252.688 18.438,15.875 34.75,47 34.75,94.75 0,68.438 -0.688,123.625 -0.688,140.5 0,13.625 9.312,29.562 35.25,24.562 C 877.438,930 1024,738.125 1024,512 1024,229.25 794.75,0 512,0 Z"
       id="path7"
       inkscape:connector-curvature="0"
       style="fill:#000000" />
  </g>
</svg>
