<?xml version="1.0" encoding="UTF-8" standalone="no"?>
<!-- Created with Inkscape (http://www.inkscape.org/) -->

<svg
   xmlns:dc="http://purl.org/dc/elements/1.1/"
   xmlns:cc="http://creativecommons.org/ns#"
   xmlns:rdf="http://www.w3.org/1999/02/22-rdf-syntax-ns#"
   xmlns:svg="http://www.w3.org/2000/svg"
   xmlns="http://www.w3.org/2000/svg"
   xmlns:sodipodi="http://sodipodi.sourceforge.net/DTD/sodipodi-0.dtd"
   xmlns:inkscape="http://www.inkscape.org/namespaces/inkscape"
   version="1.1"
   id="svg2"
   xml:space="preserve"
   width="661.33331"
   height="113.33333"
   viewBox="0 0 661.33331 113.33333"
   sodipodi:docname="tuxedocomputers.svg"
   inkscape:version="0.92.2 (5c3e80d, 2017-08-06)"><metadata
     id="metadata8"><rdf:RDF><cc:Work
         rdf:about=""><dc:format>image/svg+xml</dc:format><dc:type
           rdf:resource="http://purl.org/dc/dcmitype/StillImage" /><dc:title></dc:title></cc:Work></rdf:RDF></metadata><defs
     id="defs6" /><sodipodi:namedview
     pagecolor="#ffffff"
     bordercolor="#666666"
     borderopacity="1"
     objecttolerance="10"
     gridtolerance="10"
     guidetolerance="10"
     inkscape:pageopacity="0"
     inkscape:pageshadow="2"
     inkscape:window-width="1920"
     inkscape:window-height="1025"
     id="namedview4"
     showgrid="false"
     inkscape:zoom="0.50352824"
     inkscape:cx="138.02602"
     inkscape:cy="56.666664"
     inkscape:window-x="0"
     inkscape:window-y="27"
     inkscape:window-maximized="1"
     inkscape:current-layer="g10" /><g
     id="g10"
     inkscape:groupmode="layer"
     inkscape:label="ink_ext_XXXXXX"
     transform="matrix(1.3333333,0,0,-1.3333333,0,113.33333)"><g
       id="g12"
       transform="scale(0.1)"><path
         d="M 1805.62,156.48 H 1496.6 v 544.301 h 313.99 l -1.45,-14.922 -5.19,-52.66 -1.18,-12.027 -12.11,-0.121 -167.18,-2.141 V 477.301 l 156.64,-2.141 14.68,-0.199 -1.36,-14.57 -4.61,-47.692 -1.13,-11.961 -12.04,-0.269 -152.18,-3.52 V 238.441 l 187.03,-3.75 14.45,-0.281 -1.25,-14.371 -4.61,-51.168 -1.13,-12.391 h -12.35"
         style="fill:#231f20;fill-opacity:1;fill-rule:nonzero;stroke:none"
         id="path14"
         inkscape:connector-curvature="0" /><path
         d="m 2892.7,430.941 c 0,-42.113 -5.4,-80.242 -16.18,-114.492 -5.35,-17.39 -12.14,-33.519 -20.31,-48.328 -8.16,-14.84 -17.89,-28.551 -29.02,-41.051 -11.06,-12.5 -23.52,-23.519 -37.35,-33.09 -13.79,-9.57 -28.9,-17.691 -45.23,-24.332 h -0.08 c -16.37,-6.597 -34.18,-11.558 -53.16,-14.847 -18.87,-3.242 -38.91,-4.922 -60.04,-4.922 -21.88,0 -42.31,1.68 -61.25,5 -19.03,3.281 -36.68,8.402 -52.89,15.242 v -0.043 c -16.14,6.762 -30.82,14.922 -44.03,24.531 -13.32,9.692 -25.19,20.821 -35.54,33.36 v 0.043 c -10.24,12.5 -19.1,26.25 -26.6,41.129 -7.5,14.839 -13.68,30.937 -18.48,48.281 -4.81,17.226 -8.4,35.277 -10.78,54.137 -2.35,18.871 -3.56,38.711 -3.56,59.382 0,20.508 1.21,40.27 3.64,59.289 2.38,18.911 6.05,36.84 10.93,53.641 4.96,17.109 11.25,32.93 18.87,47.418 7.7,14.652 16.88,28.121 27.31,40.352 l 0.03,0.039 c 10.55,12.191 22.58,23.011 35.98,32.422 13.4,9.378 28.09,17.308 44.06,23.75 h 0.08 c 16.1,6.41 33.63,11.25 52.5,14.418 18.75,3.199 38.83,4.8 60.12,4.8 21.37,0 41.56,-1.64 60.51,-4.8 19.06,-3.168 36.75,-8.008 52.97,-14.34 l 0.03,-0.078 c 16.37,-6.481 31.33,-14.372 45,-23.672 13.83,-9.379 26.25,-20.16 37.23,-32.231 l 0.04,-0.07 c 10.9,-12.109 20.59,-25.629 28.83,-40.43 8.12,-14.57 14.88,-30.359 20.19,-47.308 v -0.039 c 10.75,-33.75 16.18,-71.481 16.18,-113.161 z m -132.66,0 c 0,15.661 -0.66,30.188 -1.92,43.508 -1.28,13.442 -3.24,26.332 -5.82,38.52 h 0.04 c -2.61,11.722 -5.89,22.543 -9.88,32.422 -3.91,9.73 -8.51,18.558 -13.79,26.449 l -0.04,0.109 c -5.08,7.621 -10.9,14.422 -17.46,20.352 -6.56,5.898 -13.75,10.82 -21.6,14.847 l -0.04,-0.039 c -7.97,4.063 -16.72,7.153 -26.13,9.18 -9.69,2.07 -20.28,3.09 -31.68,3.09 -10.43,0 -20.35,-0.508 -29.81,-1.609 -9.61,-1.129 -18.79,-2.77 -27.38,-5 l -0.12,-0.04 c -8.39,-2.07 -15.93,-4.609 -22.53,-7.57 -6.49,-2.93 -12.04,-6.211 -16.53,-9.769 -3.55,-2.813 -6.91,-7.891 -9.96,-15.192 -3.55,-8.48 -6.48,-19.578 -8.83,-33.168 v -0.082 c -2.5,-14.14 -4.37,-30.777 -5.58,-49.918 -1.25,-19.14 -1.84,-41.172 -1.84,-66.09 0,-15.121 0.55,-29.461 1.64,-43.011 1.06,-13.789 2.7,-26.879 4.84,-39.141 h -0.03 c 2.11,-11.68 5,-22.769 8.55,-33.129 3.44,-10.039 7.54,-19.289 12.31,-27.73 4.68,-8.16 10.11,-15.43 16.21,-21.602 6.09,-6.168 12.93,-11.406 20.43,-15.668 h 0.07 c 7.54,-4.289 16.1,-7.57 25.55,-9.762 9.73,-2.226 20.55,-3.359 32.42,-3.359 12.89,0 24.46,0.582 34.73,1.723 10.27,1.129 19.41,2.808 27.34,5 7.78,2.187 15,4.797 21.64,7.808 6.61,2.93 12.58,6.328 17.89,10.039 l 0.55,0.313 c 1.13,0.699 2.42,2.109 3.75,4.219 h 0.04 c 1.8,2.808 3.55,6.558 5.2,11.25 l 0.07,0.23 c 1.88,4.969 3.64,10.75 5.32,17.231 1.68,6.636 3.2,13.828 4.53,21.527 h 0.04 c 1.29,7.812 2.46,16.32 3.47,25.351 1.02,8.75 1.84,17.969 2.5,27.571 0.67,10.32 1.14,20.32 1.41,30.078 0.31,9.101 0.43,19.531 0.43,31.062"
         style="fill:#231f20;fill-opacity:1;fill-rule:nonzero;stroke:none"
         id="path16"
         inkscape:connector-curvature="0" /><path
         d="m 1890.7,696.801 c 7.85,0.859 18.87,1.91 31.14,3.078 l 5.78,0.551 c 8.16,0.781 15.58,1.449 21.91,1.91 6.88,0.551 14.65,1.058 23.2,1.609 7.43,0.43 15.28,0.891 23.72,1.281 7.57,0.36 15.5,0.711 23.9,1.02 7.77,0.27 15.63,0.469 23.36,0.59 h 0.04 c 9.92,0.109 17.19,0.23 21.68,0.23 20.51,0 40.19,-1.172 58.95,-3.441 18.67,-2.301 36.6,-5.777 53.78,-10.508 h 0.04 c 17.07,-4.723 33.13,-10.93 47.97,-18.512 l 0.04,0.039 c 14.92,-7.578 28.67,-16.636 41.13,-27.07 l 0.04,-0.039 c 12.58,-10.629 23.75,-22.738 33.48,-36.25 9.61,-13.437 17.89,-28.359 24.69,-44.73 6.79,-16.36 11.95,-34.45 15.31,-54.137 3.36,-19.41 5.08,-40.434 5.08,-62.891 0,-21.601 -1.33,-42.582 -3.91,-62.769 -2.62,-20.121 -6.56,-39.301 -11.8,-57.422 -5.35,-18.442 -12.3,-35.551 -20.78,-51.219 -8.51,-15.82 -18.67,-30.351 -30.35,-43.473 -11.72,-13.128 -25.27,-24.808 -40.43,-35 -15.12,-10.117 -31.79,-18.707 -49.96,-25.82 h -0.12 c -18.28,-7.027 -38.43,-12.348 -60.35,-15.816 -21.91,-3.481 -45.47,-5.282 -70.66,-5.282 l -21.13,0.2 c -7.54,0.121 -15.12,0.269 -22.66,0.468 -7.85,0.192 -15.55,0.43 -22.7,0.743 -8.08,0.308 -15.7,0.699 -22.5,1.168 l -21.4,1.453 -20.51,1.398 c -7.54,0.512 -14.1,1.02 -19.26,1.449 -5.51,0.469 -11.13,1.051 -16.76,1.68 l -12.07,1.332 v 532.848 z m 141.41,-465.039 h 0.16 z m -26.64,2.148 6.17,-0.629 7.23,-0.582 0.93,-0.078 h 0.08 c 4.69,-0.391 9.22,-0.742 12.39,-0.859 l 5.93,-0.203 4.65,-0.039 v 0.082 c 14.69,0 28.01,0.429 39.88,1.328 h 0.08 c 12.27,0.898 23.09,2.23 32.42,3.949 9.11,1.711 17.54,4.25 25.24,7.5 7.62,3.199 14.65,7.18 21.13,11.949 3.32,2.621 6.52,5.512 9.53,8.633 3.28,3.48 6.37,7.187 9.1,11.019 v 0.071 c 2.78,3.91 5.47,8.558 8.05,13.871 2.74,5.629 5.24,11.84 7.58,18.558 2.26,6.79 4.34,14.571 6.17,23.321 1.92,9.097 3.56,18.937 4.92,29.449 1.37,10.699 2.39,22.77 3.05,36.172 v 0.039 c 0.66,12.848 1.02,27.5 1.02,43.828 0,38.633 -4.54,70.231 -13.56,94.531 v 0.078 c -4.37,12.032 -9.53,22.653 -15.39,31.872 -5.78,9.031 -12.38,16.921 -19.73,23.64 l 0.04,0.039 c -7.22,6.52 -15.15,12.102 -23.75,16.711 -8.51,4.61 -17.77,8.25 -27.73,10.942 l 0.04,0.039 c -10.16,2.66 -20.9,4.687 -32.11,6.058 -11.17,1.36 -22.81,2.071 -34.85,2.071 -3.94,0 -8.67,-0.04 -12.07,-0.161 l -7.03,-0.39 -7.15,-0.547 -7.22,-0.621 v 0.039 c -1.64,-0.121 -3.28,-0.32 -5.04,-0.512 V 233.91"
         style="fill:#231f20;fill-opacity:1;fill-rule:nonzero;stroke:none"
         id="path18"
         inkscape:connector-curvature="0" /><path
         d="m 965.859,353.051 c 0,-13.75 -1.289,-27.153 -3.871,-40.281 -2.578,-13.079 -6.398,-25.782 -11.519,-38.079 -5.117,-12.269 -11.52,-23.91 -19.18,-34.851 -7.617,-10.93 -16.488,-21.051 -26.488,-30.231 -10.031,-9.218 -21.321,-17.5 -33.821,-24.839 -12.429,-7.27 -25.98,-13.559 -40.628,-18.911 -14.571,-5.308 -30.43,-9.3 -47.422,-11.949 -17.11,-2.699 -35.121,-4.031 -53.91,-4.031 -15.43,0 -30.348,0.859 -44.571,2.543 -14.25,1.637 -27.89,4.18 -40.777,7.5 -13.16,3.437 -25.313,7.93 -36.442,13.476 -11.21,5.551 -21.609,12.34 -31.179,20.192 l -0.11,0.082 c -9.492,7.969 -18.011,17.148 -25.429,27.578 -7.352,10.309 -13.602,21.719 -18.633,34.219 -5.039,12.422 -8.828,26.293 -11.289,41.562 -2.469,15.078 -3.711,31.328 -3.711,48.707 V 701.48 h 126.91 V 335.621 c 0,-12.5 0.551,-23.512 1.563,-33 1.058,-9.531 2.578,-17.742 4.57,-24.531 1.957,-6.531 4.457,-12.352 7.308,-17.352 2.649,-4.566 5.661,-8.398 9.02,-11.359 l 0.121,-0.117 c 3.43,-3.172 7.418,-5.864 11.828,-7.973 4.461,-2.148 9.461,-3.75 14.852,-4.809 5.969,-1.089 12.687,-1.949 20,-2.5 7.148,-0.582 14.879,-0.859 23.238,-0.859 10.16,0 19.449,0.551 27.93,1.57 8.633,1.047 16.332,2.61 23.082,4.571 6.758,2.027 13.051,4.449 18.789,7.187 5.551,2.61 10.551,5.5 14.851,8.711 l 0.188,0.11 c 3.601,2.582 6.531,5.859 8.793,9.89 l -0.043,0.039 c 2.5,4.531 4.301,10 5.281,16.36 v 0.121 c 1.25,7.5 2.18,16.019 2.852,25.39 0.617,9.219 0.968,19.489 0.968,30.821 V 701.48 H 965.859 V 353.051"
         style="fill:#231f20;fill-opacity:1;fill-rule:nonzero;stroke:none"
         id="path20"
         inkscape:connector-curvature="0" /><path
         d="m 1286.41,463.828 176.6,-285.976 12.77,-20.661 h -144.53 l -3.95,6.598 -117.07,196.09 L 1031.68,97.6992 4958.24,100.469 4949.49,10.8203 2248.71,8.87109 C 1409.14,5.30859 1382.81,5.23047 969.219,5.98047 h -98.75 L 885.512,27.3008 1166.68,427.109 1011.95,680.898 999.379,701.48 h 144.101 l 3.98,-6.75 94.26,-161.878 143.75,227.187 L 363.16,752.93 V 157.191 H 212.621 V 753.012 L 13.3203,755.66 0,755.82 8.82813,848.09 1442.38,849.961 1442.42,850 h 97.42 l -13.75,-21.02 -239.68,-365.152"
         style="fill:#231f20;fill-opacity:1;fill-rule:nonzero;stroke:none"
         id="path22"
         inkscape:connector-curvature="0" /><path
         d="m 3389.57,283.441 c 0,-19.222 -2.46,-36.562 -7.3,-52.07 -4.81,-15.551 -12.11,-28.832 -21.96,-39.812 -9.72,-11.008 -21.95,-19.411 -36.52,-25.348 -14.65,-5.859 -31.68,-8.871 -51.02,-8.871 -19.96,0 -36.99,3.012 -51.32,9.031 -14.3,5.969 -25.94,14.449 -35.04,25.469 -9.03,11.012 -15.71,24.289 -20.04,39.801 -4.34,15.507 -6.49,32.769 -6.49,51.8 0,19.02 2.15,36.168 6.6,51.438 4.42,15.242 11.25,28.242 20.47,38.992 9.3,10.738 21.02,18.938 35.28,24.719 14.25,5.672 31.25,8.601 50.74,8.601 19.57,0 36.64,-2.929 51.17,-8.601 14.53,-5.781 26.6,-13.981 36.37,-24.719 9.65,-10.75 16.95,-23.75 21.76,-38.992 4.84,-15.27 7.3,-32.418 7.3,-51.438 z M 3041.17,157.34 c -18.2,0 -33.63,3.051 -46.29,9.301 -12.73,6.129 -23,14.808 -30.93,25.898 -7.93,11.09 -13.75,24.449 -17.35,40 -3.59,15.621 -5.39,32.93 -5.39,51.992 0,15.309 1.8,29.059 5.31,41.059 3.52,12.109 8.28,22.648 14.34,31.75 6.13,9.031 13.2,16.801 21.21,23.09 8.05,6.332 16.41,11.558 25.39,15.55 8.91,3.86 18.05,6.75 27.34,8.59 9.38,1.68 18.4,2.621 27.23,2.621 5.43,0 11.21,-0.203 17.35,-0.55 6.01,-0.391 11.99,-0.821 17.69,-1.481 5.78,-0.59 11.09,-1.332 15.98,-2.07 4.96,-0.789 9.02,-1.61 12.18,-2.231 l -8.75,-34.687 c -3.16,1.019 -7.61,2.187 -13.47,3.277 -5.78,1.172 -11.99,2.231 -18.6,3.321 -6.68,1.101 -13.16,1.921 -19.57,2.621 -6.48,0.738 -11.83,1.089 -16.05,1.089 -4.73,0 -8.95,-0.07 -12.66,-0.351 -3.71,-0.27 -7.11,-0.82 -10.19,-1.641 -3.05,-0.816 -5.98,-1.867 -8.75,-3.316 -2.7,-1.371 -5.51,-3.16 -8.28,-5.231 -7.27,-5.16 -12.11,-14.812 -14.73,-29.062 -2.54,-14.258 -3.79,-32.149 -3.79,-53.438 0,-32.781 4.88,-57.582 14.53,-74.382 9.73,-16.868 25.28,-25.27 46.84,-25.27 12.07,0 24.8,1.012 38.08,3.09 13.17,1.992 25.2,4.84 35.9,8.551 v -20.391 c -5.94,-2.809 -12.42,-5.348 -19.37,-7.5 -6.99,-2.23 -14.18,-4.059 -21.49,-5.59 -7.3,-1.437 -14.72,-2.609 -22.22,-3.398 -7.5,-0.821 -14.61,-1.211 -21.49,-1.211 z m 635.04,3.441 -18.79,185.899 -83.55,-185.899 h -14.26 L 3472.3,346.68 3456.52,160.781 h -27.26 l 23.59,245.391 h 44.1 l 81.17,-172.652 77.23,172.652 h 43.05 l 25.62,-245.391 z m 149.73,113.008 6.29,1.25 c 6.13,1.441 12.03,3.242 17.46,5.43 5.47,2.23 10.15,5.511 14.14,9.84 3.94,4.3 7.15,10 9.41,17.031 2.23,7.07 3.4,15.98 3.4,27 0,16.32 -3.71,28.238 -11.09,35.738 -7.39,7.5 -17.15,11.293 -29.14,11.293 -3.01,0 -6.06,-0.082 -9.14,-0.281 -3.05,-0.192 -6.29,-0.539 -9.65,-1.09 V 160.781 h -47.03 v 242.5 c 4.96,0.348 10.31,0.739 16.17,0.981 5.78,0.386 11.83,0.738 18.04,1.008 6.33,0.281 12.54,0.429 18.79,0.55 6.29,0.078 12.35,0.078 18.13,0.078 14.26,0 26.72,-1.636 37.19,-4.847 10.47,-3.281 19.14,-7.891 25.97,-13.942 6.96,-5.937 12.03,-13.238 15.35,-21.718 3.36,-8.59 5.04,-18.243 5.04,-28.981 0,-11.289 -1.87,-21.84 -5.58,-31.762 -3.71,-9.847 -9.38,-18.519 -16.96,-25.898 -7.69,-7.422 -17.53,-13.16 -29.41,-17.422 C 3861.48,257.07 3847.3,255 3830.9,255 h -2.07 z m 336.01,-27.07 c 0,-12.188 -2.26,-23.668 -6.79,-34.489 -4.54,-10.82 -11.1,-20.32 -19.96,-28.441 -8.83,-8.129 -19.77,-14.527 -32.93,-19.301 -13.09,-4.797 -28.32,-7.148 -45.55,-7.148 -14.26,0 -27.19,1.531 -38.63,4.539 -11.49,2.961 -21.25,7.812 -29.46,14.601 -8.2,6.879 -14.53,15.711 -18.94,26.61 -4.42,10.93 -6.57,24.289 -6.57,40.191 V 404.57 h 47 V 238.48 c 0,-12.07 1.09,-21.718 3.16,-28.871 2.15,-7.109 5.35,-12.73 9.57,-16.519 4.22,-3.871 9.49,-6.41 15.7,-7.578 6.33,-1.172 13.44,-1.723 21.57,-1.723 10.11,0 18.71,1.09 25.82,3.16 7.11,2.153 13.08,4.961 17.85,8.481 5,3.519 8.05,9.019 9.22,16.64 1.29,7.578 1.91,16.758 1.91,27.5 v 165 h 47.03 z m 100.71,-85.938 v 217.891 l -71.14,1.058 2.35,24.84 h 187.46 l -2.35,-24.019 -69.02,-1.879 V 160.781 Z m 288.43,0 H 4411.84 V 404.57 h 134.57 l -2.46,-24.84 -85.12,-1.058 v -79.371 l 80.15,-1.063 -2.14,-22.457 -78.01,-1.832 v -87.187 l 94.41,-1.883 z m 391.96,71.41 c 0,-8.871 -2.07,-17.742 -6.29,-26.57 -4.26,-8.902 -10.39,-16.949 -18.36,-24.101 -7.85,-7.11 -17.42,-12.969 -28.71,-17.379 -11.14,-4.532 -23.71,-6.801 -37.62,-6.801 -7.38,0 -14.26,0.469 -20.7,1.371 -6.25,0.82 -12.23,2.07 -17.85,3.519 -5.51,1.52 -10.82,3.321 -15.98,5.579 -5.12,2.191 -10.16,4.613 -15.31,7.23 l 11.64,36.25 c 3.32,-2.309 7.77,-4.769 13.32,-7.379 5.62,-2.699 11.56,-5.121 18.16,-7.39 6.53,-2.34 13.13,-4.25 19.69,-5.7 6.6,-1.519 12.62,-2.269 18.12,-2.269 6.14,0 11.22,0.398 15.2,1.219 3.94,0.82 7.54,1.871 10.7,3.32 3.56,1.359 6.33,4.879 8.52,10.539 2.07,5.59 3.16,12.93 3.16,21.961 0,8.281 -2.73,14.879 -8.24,19.84 -5.39,4.879 -12.3,9.218 -20.47,12.808 -8.24,3.641 -17.03,7.231 -26.52,10.864 -9.57,3.597 -18.44,8.277 -26.68,13.988 -8.17,5.66 -15.04,13.039 -20.43,22.109 -5.55,8.903 -8.24,20.742 -8.24,35.352 0,7.027 1.91,14.527 5.62,22.301 3.67,7.847 8.99,15.078 16.02,21.757 7.03,6.602 15.86,11.993 26.21,16.25 10.47,4.219 22.3,6.332 35.47,6.332 10.54,0 20.74,-0.55 30.47,-1.64 9.88,-0.981 19.33,-2.461 28.43,-4.141 L 4925,365.078 c -4.26,1.684 -9.02,3.082 -14.34,4.531 -5.43,1.442 -10.82,2.621 -16.44,3.711 -5.59,1.09 -10.98,1.879 -16.25,2.539 -5.31,0.621 -10,0.903 -13.99,0.903 -4.6,0 -8.86,-0.203 -12.73,-0.633 -3.87,-0.469 -7.38,-1.641 -10.55,-3.629 -2.97,-1.719 -5.15,-4.801 -6.48,-9.102 -1.37,-4.339 -1.99,-9.488 -1.99,-15.429 0,-6.207 1.64,-11.289 4.8,-15.348 3.13,-4.07 7.27,-7.66 12.5,-10.742 5.27,-3.051 11.09,-5.859 17.7,-8.399 6.68,-2.621 13.47,-5.32 20.39,-8.21 6.95,-2.891 13.75,-6.321 20.39,-10.11 6.64,-3.789 12.46,-8.359 17.69,-13.988 5.24,-5.512 9.42,-12.262 12.58,-20.231 3.17,-7.929 4.77,-17.5 4.77,-28.75 z m -288.56,29.02 h -15.86 v -100.43 h -47.03 v 243.321 c 9.57,0.699 20.31,1.25 32.31,1.796 11.91,0.551 23.39,0.821 34.41,0.821 27.97,0 49.26,-5.43 63.79,-16.168 14.53,-10.711 21.84,-27.5 21.84,-50.43 0,-10.281 -1.25,-19.141 -3.72,-26.723 -2.42,-7.578 -5.74,-14.179 -9.8,-19.878 -4.1,-5.59 -8.67,-10.36 -14.02,-14.219 -5.32,-3.871 -10.82,-7.153 -16.68,-9.77 6.95,-12.543 13.43,-24.371 19.76,-35.472 6.21,-11.09 12.54,-20.739 18.79,-29.059 6.21,-8.281 12.62,-14.879 19.02,-19.648 6.41,-4.883 13.36,-7.34 20.75,-7.34 h 1.64 v -15.59 c -3.79,-1.25 -8.05,-2.262 -12.89,-3.082 -4.81,-0.789 -10.2,-1.18 -16.25,-1.18 -8.67,0 -16.17,0.82 -22.58,2.352 -6.49,1.636 -12.74,5.039 -18.87,10.386 -6.01,5.231 -12.34,13.012 -18.83,23.204 -6.6,10.199 -14.18,24.097 -22.77,41.488 z m -7.38,24.098 c 6.48,0 12.81,0.82 18.94,2.543 6.06,1.636 10.94,3.707 14.46,6.207 1.72,1.171 3.51,2.82 5.23,4.691 1.8,1.988 3.44,4.531 4.77,7.699 1.44,3.242 2.61,7.301 3.44,12.18 0.89,4.961 1.36,11.101 1.36,18.601 0,8.2 -0.9,15.231 -2.81,20.86 -1.8,5.66 -4.61,10.148 -8.28,13.59 -3.71,3.48 -8.32,5.898 -13.83,7.422 -5.51,1.519 -11.72,2.269 -18.75,2.269 -1.99,0 -4.18,0 -6.52,-0.082 -2.42,-0.117 -4.5,-0.391 -6.49,-0.738 v -95.242 z m -1307.27,-1.868 c 0,14.797 -1.29,28.161 -3.79,39.957 -2.61,11.832 -6.6,21.762 -12.1,29.961 -5.43,8.2 -12.39,14.45 -20.86,18.789 -8.48,4.332 -18.48,6.524 -30.12,6.524 -10.2,0 -19.69,-1.094 -28.56,-3.363 -8.75,-2.188 -15.66,-5.309 -20.82,-9.368 -5.15,-4.062 -8.82,-12.929 -11.21,-26.722 -2.42,-13.707 -3.59,-32.309 -3.59,-55.778 0,-14.613 1.09,-27.89 3.16,-39.812 2.15,-11.91 5.67,-22.109 10.55,-30.777 4.96,-8.672 11.56,-15.352 19.69,-19.961 8.2,-4.692 18.4,-7.032 30.51,-7.032 12.53,0 22.81,1.172 30.93,3.442 8.13,2.258 15,5.429 20.59,9.289 2.69,1.719 4.96,5.238 6.87,10.551 2,5.238 3.6,11.757 4.96,19.41 1.25,7.699 2.27,16.25 2.86,25.668 0.66,9.453 0.93,19.179 0.93,29.222"
         style="fill:#ed1c24;fill-opacity:1;fill-rule:nonzero;stroke:none"
         id="path24"
         inkscape:connector-curvature="0" /></g></g></svg>