<?xml version="1.0" encoding="UTF-8"?>
<svg id="Ebene_1" data-name="Ebene 1" xmlns="http://www.w3.org/2000/svg" xmlns:xlink="http://www.w3.org/1999/xlink" viewBox="0 0 1172 189">
  <defs>
    <style>
      .cls-1 {
        clip-path: url(#clippath);
      }

      .cls-2, .cls-3, .cls-4 {
        fill: none;
      }

      .cls-2, .cls-5, .cls-6, .cls-7 {
        stroke-width: 0px;
      }

      .cls-8 {
        font-family: BebasNeue-Regular, 'Bebas Neue';
        font-size: 98.44px;
      }

      .cls-8, .cls-7 {
        fill: #fee715;
      }

      .cls-9 {
        fill: #ffe814;
      }

      .cls-9, .cls-10, .cls-11, .cls-12, .cls-3, .cls-4 {
        stroke-linecap: round;
        stroke-linejoin: round;
      }

      .cls-9, .cls-10, .cls-11, .cls-12, .cls-4 {
        stroke: #fff;
      }

      .cls-9, .cls-12 {
        stroke-width: 2.47px;
      }

      .cls-10, .cls-3, .cls-4 {
        stroke-width: 2.44px;
      }

      .cls-11 {
        stroke-width: 2.44px;
      }

      .cls-3 {
        stroke: #fee715;
      }

      .cls-6 {
        fill: #fff;
      }
    </style>
    <clipPath id="clippath">
      <rect class="cls-2" x="1033.85" y="65.98" width="112.94" height="109.02"/>
    </clipPath>
  </defs>
  <g id="Ebene-1">
    <rect class="cls-5" x="72.67" y="95.03" width="292.38" height="69.88"/>
    <rect class="cls-5" x="555.65" y="94.7" width="83.68" height="69.88"/>
    <path class="cls-7" d="M230.73,41.27l-34.9,25.04-7.65-33.21,42.56,8.16Z"/>
    <path class="cls-6" d="M113.72,127.94l-13.22,65.74,22.96,33.21,21.28,6.79h19.07V88.63l-21.57-16.94-28.53,56.25Z"/>
    <path class="cls-3" d="M163.82,88.63v151.13l-40.35-12.88-22.96-33.21,13.22-65.74,28.53-56.25,21.57,16.94Z"/>
    <g>
      <path class="cls-10" d="M85.2,159.11l-27.14-16.26H2.4l82.8,16.26Z"/>
      <path class="cls-5" d="M-38.01,175.42v11.66l123.2-27.96L2.4,142.84l-40.41,32.57Z"/>
      <path class="cls-4" d="M-58.13,191.64L2.4,142.85l82.8,16.27-143.33,32.53Z"/>
      <path class="cls-5" d="M-38.01,187.07v4.17l83.55-1.64,39.66-30.5-123.2,27.96Z"/>
      <path class="cls-4" d="M45.54,189.61l-103.67,2.03,143.33-32.53-39.66,30.5Z"/>
      <path class="cls-10" d="M85.2,159.11l-11.13,37.95,26.44-3.39-15.31-34.56Z"/>
      <path class="cls-10" d="M100.5,193.67l13.22-65.74-28.53,31.17,15.31,34.56Z"/>
    </g>
    <path class="cls-5" d="M168.69,48.64l19.48-16.94-59.14-9.49,39.66,26.43Z"/>
    <g>
      <path class="cls-4" d="M129.03,22.21l59.14,9.49-19.48,16.94-39.66-26.43Z"/>
      <path class="cls-5" d="M142.25,71.69l26.44-23.04-39.66-26.43,13.22,49.47Z"/>
      <path class="cls-4" d="M142.25,71.69l26.44-23.04-39.66-26.43,13.22,49.47Z"/>
      <path class="cls-10" d="M188.17,31.7l7.65,33.21-27.14-16.26,19.48-16.94Z"/>
      <path class="cls-4" d="M230.73,39.87l-34.9,25.04-7.65-33.21,42.56,8.16Z"/>
      <path class="cls-10" d="M58.06,142.84l55.66-14.91-28.53,31.17-27.13-16.26Z"/>
      <path class="cls-10" d="M85.2,159.11l-39.66,30.5,28.53,7.45,11.13-37.95Z"/>
      <path class="cls-5" d="M72.67,85.92l69.58-14.23-13.22-49.47-56.36,63.7Z"/>
      <path class="cls-4" d="M129.03,22.21l13.22,49.47-69.58,14.23,56.36-63.7Z"/>
      <path class="cls-10" d="M58.06,142.84l14.61-56.93,41.05,42.02-55.66,14.91Z"/>
      <path class="cls-10" d="M142.25,71.69l-69.58,14.23,41.05,42.02,28.53-56.25Z"/>
    </g>
    <path class="cls-4" d="M45.54,189.61l28.53,7.46-40.35,52.18,11.83-59.64Z"/>
    <path class="cls-11" d="M142.25,71.69l26.44-23.04,27.13,16.26-32.01,23.72-21.57-16.94Z"/>
    <rect class="cls-5" x="375.45" y="95.02" width="14.44" height="70.15"/>
    <path class="cls-5" d="M400.65,95.02h18.11l14.04,41.99h.26v-41.99h12.86v70.15h-14.83l-17.33-51.21h-.26v51.21h-12.86v-70.15Z"/>
    <path class="cls-5" d="M456.16,148.53v-53.51h14.44v54.31c0,5.01,2.76,6.82,7.35,6.82s7.35-1.8,7.35-6.82v-54.31h13.91v53.51c0,11.22-7.35,17.64-21.53,17.64s-21.53-6.41-21.53-17.64"/>
    <path class="cls-5" d="M522.17,129.29l-15.88-34.27h15.23l9.71,22.65h.26l9.97-22.65h13.65l-15.88,34.27,16.67,35.87h-15.23l-10.5-24.45h-.26l-10.76,24.45h-13.65l16.67-35.87Z"/>
    <path class="cls-5" d="M649.95,94.5h18.11l14.04,41.99h.26v-41.99h12.86v70.15h-14.83l-17.33-51.21h-.26v51.21h-12.86v-70.15Z"/>
    <path class="cls-5" d="M705.99,94.5h38.2v10.02h-23.76v19.54h18.64v10.02h-18.64v30.56h-14.44v-70.15Z"/>
    <path class="cls-5" d="M779.49,148.71v-38.28c0-5.01-2.89-6.91-7.48-6.91s-7.48,1.9-7.48,6.91v38.28c0,5.01,2.89,6.91,7.48,6.91s7.48-1.9,7.48-6.91M750.09,148.01v-36.88c0-11.22,7.74-17.64,21.92-17.64s21.92,6.41,21.92,17.64v36.88c0,11.22-7.74,17.64-21.92,17.64s-21.92-6.41-21.92-17.64"/>
    <path class="cls-5" d="M911.64,142.49l-6.43-34.67h-.26l-6.3,34.67h13ZM895.89,95.59h19.56l14.96,70.15h-14.44l-2.62-13.93v.2h-16.41l-2.63,13.73h-13.39l14.96-70.15Z"/>
    <path class="cls-5" d="M936.17,149.1v-36.88c0-11.22,7.35-17.64,21.53-17.64s21.53,6.41,21.53,17.64v6.01h-13.65v-6.71c0-5.01-2.89-6.91-7.48-6.91s-7.48,1.9-7.48,6.91v38.38c0,5.01,2.89,6.82,7.48,6.82s7.48-1.8,7.48-6.82v-13.73h-7.22v-10.02h20.87v22.95c0,11.22-7.35,17.64-21.53,17.64s-21.53-6.41-21.53-17.64"/>
    <path class="cls-7" d="M319.02,95.02h14.44v60.12h23.76v10.02h-38.2v-70.15Z"/>
    <rect class="cls-7" x="604.31" y="94.7" width="14.44" height="70.15"/>
    <rect class="cls-7" x="277.49" y="153.31" width="10.79" height="10.65"/>
    <rect class="cls-5" x="800.09" y="95.76" width="77.02" height="69.88"/>
    <path class="cls-7" d="M841.7,105.78h-15.09v-10.02h44.63v10.02h-15.09v60.13h-14.44v-60.13Z"/>
    <rect class="cls-5" x="985.4" y="95.75" width="155.6" height="69.88"/>
    <path class="cls-12" d="M1195.37,67.68l-92.93,15.09,30.61,26.95,62.32-42.04Z"/>
    <g class="cls-1">
      <g>
        <path class="cls-12" d="M1102.44,82.77l-12.03,52.82,42.64-25.87-30.61-26.95Z"/>
        <path class="cls-9" d="M1035.57,95.76l54.84,39.83,12.03-52.82-66.87,12.99Z"/>
      </g>
    </g>
    <path class="cls-12" d="M1181.04,154.53l-47.99-44.81-42.64,25.87,50.29,37.73,40.33-18.78Z"/>
  </g>
  <text class="cls-8" transform="translate(192.45 164.6)"><tspan x="0" y="0">20</tspan></text>
  <polygon class="cls-12" points="1195.37 67.68 1133.05 109.72 1181.04 154.53 1195.37 67.68"/>
</svg>