<?xml version="1.0" encoding="UTF-8" standalone="no"?>
<!DOCTYPE svg PUBLIC "-//W3C//DTD SVG 20010904//EN"
              "http://www.w3.org/TR/2001/REC-SVG-20010904/DTD/svg10.dtd">

<svg xmlns="http://www.w3.org/2000/svg"
     width="464px" height="200px"
     viewBox="0 0 464 200">
  <path id="luga"
        fill="black"
        d="M 26.09,25.67
           C 28.72,25.67 30.52,26.39 31.52,27.83
             32.50,29.26 33.00,31.90 33.00,35.75
             33.00,35.75 33.00,114.61 33.00,114.61
             33.00,119.03 32.16,122.01 30.50,123.55
             28.84,125.09 25.41,126.08 20.20,126.52
             20.20,126.52 20.20,129.00 20.20,129.00
             20.20,129.00 59.11,129.00 59.11,129.00
             59.11,129.00 59.11,126.52 59.11,126.52
             53.98,126.18 50.70,125.33 49.27,123.95
             47.83,122.58 47.11,119.63 47.11,115.11
             47.11,115.11 47.11,16.38 47.11,16.38
             47.11,16.38 46.44,16.05 46.44,16.05
             39.79,18.26 30.98,20.69 20.00,23.34
             20.00,23.34 20.00,26.00 20.00,26.00
             21.86,25.78 23.89,25.67 26.09,25.67 Z
           M 141.56,120.22
           C 137.70,120.22 135.16,119.62 133.94,118.41
             132.72,117.19 132.11,114.65 132.11,110.78
             132.11,110.78 132.11,54.00 132.11,54.00
             132.11,54.00 106.00,54.00 106.00,54.00
             106.00,54.00 106.00,56.83 106.00,56.83
             111.08,57.05 114.35,57.82 115.81,59.14
             117.27,60.46 118.00,63.17 118.00,67.25
             118.00,67.25 118.00,106.14 118.00,106.14
             118.00,109.12 117.27,111.63 115.81,113.67
             114.35,115.71 112.57,117.20 110.45,118.14
             108.34,119.08 106.47,119.71 104.84,120.05
             103.23,120.38 101.83,120.55 100.64,120.55
             97.49,120.55 94.79,119.31 92.52,116.83
             90.24,114.34 89.11,111.39 89.11,107.97
             89.11,107.97 89.11,54.00 89.11,54.00
             89.11,54.00 65.00,54.00 65.00,54.00
             65.00,54.00 65.00,56.33 65.00,56.33
             68.88,56.55 71.51,57.40 72.91,58.89
             74.30,60.38 75.00,63.06 75.00,66.92
             75.00,66.92 75.00,108.62 75.00,108.62
             75.00,115.24 76.80,120.54 80.42,124.53
             84.04,128.51 88.86,130.50 94.89,130.50
             96.75,130.50 98.61,130.24 100.47,129.72
             102.33,129.21 103.87,128.67 105.08,128.09
             106.29,127.52 107.68,126.57 109.27,125.25
             110.86,123.93 111.98,122.95 112.64,122.33
             113.30,121.70 114.41,120.55 115.98,118.89
             117.57,117.23 118.52,116.24 118.84,115.91
             118.84,115.91 118.84,130.00 118.84,130.00
             118.84,130.00 119.52,130.34 119.52,130.34
             126.12,127.56 133.75,124.96 142.41,122.53
             142.41,122.53 142.41,120.22 142.41,120.22
             142.41,120.22 141.56,120.22 141.56,120.22 Z
           M 156.47,123.69
           C 157.69,124.81 160.00,126.14 163.42,127.67
             157.50,132.20 153.29,136.07 150.77,139.27
             148.25,142.46 147.00,145.69 147.00,148.94
             147.00,153.35 149.86,157.13 155.58,160.28
             161.30,163.43 168.14,165.00 176.11,165.00
             186.71,165.00 196.62,162.24 205.83,156.72
             215.04,151.20 219.64,144.34 219.64,136.16
             219.64,131.10 217.72,127.02 213.88,123.91
             210.03,120.79 205.02,119.13 198.84,118.92
             198.84,118.92 177.73,118.00 177.73,118.00
             168.99,117.67 164.62,116.18 164.62,113.55
             164.62,111.90 165.75,109.93 168.02,107.62
             170.27,105.31 172.54,103.83 174.80,103.17
             179.70,103.73 182.80,104.00 184.11,104.00
             191.07,104.00 197.11,101.62 202.25,96.86
             207.38,92.10 209.95,85.90 209.95,78.27
             209.95,73.73 208.88,69.07 206.75,64.31
             206.75,64.31 220.64,64.31 220.64,64.31
             220.64,64.31 220.64,58.00 220.64,58.00
             220.64,58.00 207.86,58.00 207.86,58.00
             204.65,58.00 200.58,57.09 195.66,55.25
             190.74,53.42 186.12,52.50 181.81,52.50
             174.04,52.50 167.46,55.12 162.08,60.34
             156.69,65.57 154.00,71.93 154.00,79.42
             154.00,84.62 155.21,88.94 157.64,92.38
             160.07,95.80 164.10,98.90 169.73,101.67
             162.73,108.01 158.47,112.05 156.94,113.80
             155.41,115.55 154.66,117.46 154.66,119.53
             154.66,121.17 155.26,122.55 156.47,123.69 Z
           M 193.73,130.12
           C 201.50,130.12 206.99,130.77 210.19,132.08
             213.39,133.38 215.00,135.62 215.00,138.81
             215.00,143.91 212.07,148.05 206.22,151.23
             200.38,154.43 192.68,156.03 183.12,156.03
             175.74,156.03 169.80,154.85 165.33,152.48
             160.86,150.12 158.62,146.98 158.62,143.08
             158.62,141.11 159.14,139.20 160.19,137.34
             161.24,135.49 163.57,132.41 167.19,128.12
             173.85,129.46 182.70,130.12 193.73,130.12 Z
           M 193.73,95.78
           C 191.55,98.49 188.57,99.84 184.77,99.84
             180.63,99.84 176.82,97.69 173.33,93.38
             169.85,89.05 168.11,82.13 168.11,72.61
             168.11,67.89 169.16,64.20 171.28,61.52
             173.41,58.83 176.38,57.48 180.19,57.48
             183.56,57.48 186.45,58.60 188.84,60.83
             191.24,63.06 192.98,65.84 194.06,69.16
             195.14,72.47 195.91,75.43 196.34,78.05
             196.78,80.65 197.00,82.88 197.00,84.73
             197.00,89.38 195.91,93.06 193.73,95.78 Z
           M 234.66,125.44
           C 237.77,128.81 241.75,130.50 246.61,130.50
             253.34,130.50 261.52,126.36 271.16,118.06
             271.58,122.49 272.57,125.67 274.11,127.61
             275.66,129.54 278.09,130.50 281.39,130.50
             284.10,130.50 286.53,129.90 288.69,128.70
             290.84,127.50 293.36,125.23 296.23,121.92
             296.23,121.92 296.23,117.58 296.23,117.58
             293.69,119.67 291.26,120.72 288.94,120.72
             287.05,120.72 285.75,120.03 285.03,118.66
             284.31,117.28 283.95,114.78 283.95,111.14
             283.95,111.14 283.95,78.94 283.95,78.94
             283.95,70.01 282.26,63.38 278.88,59.03
             275.50,54.68 269.34,52.50 260.41,52.50
             252.41,52.50 245.67,54.25 240.20,57.75
             234.73,61.24 232.00,65.51 232.00,70.55
             232.00,72.38 232.76,74.00 234.28,75.39
             235.80,76.79 237.55,77.48 239.55,77.48
             241.52,77.48 243.24,76.82 244.72,75.48
             246.20,74.15 246.94,72.57 246.94,70.75
             246.94,70.32 246.80,69.37 246.52,67.88
             246.24,66.38 246.11,65.20 246.11,64.34
             246.11,62.21 247.29,60.37 249.64,58.81
             251.99,57.26 254.85,56.48 258.22,56.48
             266.74,56.48 271.00,61.05 271.00,70.19
             271.00,70.19 271.00,80.27 271.00,80.27
             269.58,80.81 267.34,81.69 264.28,82.91
             261.22,84.12 258.97,85.02 257.55,85.62
             256.13,86.23 254.08,87.11 251.41,88.27
             248.73,89.42 246.73,90.41 245.42,91.23
             244.11,92.06 242.47,93.11 240.50,94.38
             238.53,95.64 237.05,96.88 236.06,98.09
             235.08,99.30 234.05,100.65 232.95,102.14
             231.86,103.62 231.09,105.21 230.66,106.92
             230.22,108.63 230.00,110.48 230.00,112.45
             230.00,117.73 231.55,122.06 234.66,125.44 Z
           M 270.16,113.61
           C 269.59,114.71 268.41,115.76 266.62,116.75
             262.25,119.28 258.16,120.55 254.34,120.55
             251.85,120.55 249.52,119.45 247.36,117.25
             245.19,115.04 244.11,111.68 244.11,107.17
             244.11,102.33 246.10,98.20 250.08,94.80
             254.07,91.38 261.04,87.86 271.00,84.22
             271.00,84.22 271.00,108.16 271.00,108.16
             271.00,110.69 270.72,112.51 270.16,113.61 Z" />
  <path id="Schrift"
        fill="#494fce"
        d="M 232.34,163.20
           C 233.24,164.07 234.38,164.50 235.78,164.50
             237.50,164.50 239.59,163.43 242.05,161.28
             242.16,162.43 242.41,163.25 242.81,163.75
             243.22,164.25 243.85,164.50 244.70,164.50
             245.39,164.50 246.02,164.34 246.58,164.03
             247.14,163.72 247.79,163.14 248.53,162.28
             248.53,162.28 248.53,161.16 248.53,161.16
             247.88,161.70 247.24,161.97 246.64,161.97
             246.15,161.97 245.81,161.79 245.62,161.44
             245.45,161.09 245.36,160.45 245.36,159.52
             245.36,159.52 245.36,151.28 245.36,151.28
             245.36,148.99 244.92,147.29 244.05,146.17
             243.18,145.06 241.60,144.50 239.30,144.50
             237.24,144.50 235.52,144.92 234.11,145.77
             232.70,146.61 232.00,147.64 232.00,148.86
             232.00,149.30 232.16,149.69 232.50,150.03
             232.83,150.37 233.22,150.53 233.66,150.53
             234.24,150.53 234.75,150.38 235.19,150.06
             235.63,149.74 235.86,149.36 235.86,148.92
             235.86,148.83 235.82,148.61 235.75,148.25
             235.69,147.89 235.66,147.61 235.66,147.41
             235.66,146.90 235.95,146.46 236.55,146.09
             237.15,145.72 237.88,145.53 238.75,145.53
             240.91,145.53 242.00,146.70 242.00,149.05
             242.00,149.05 242.00,151.62 242.00,151.62
             241.61,151.76 241.01,151.98 240.19,152.30
             239.38,152.61 238.77,152.84 238.39,153.00
             238.00,153.15 237.45,153.37 236.73,153.67
             236.02,153.96 235.48,154.22 235.12,154.44
             234.78,154.65 234.34,154.91 233.81,155.23
             233.29,155.56 232.89,155.88 232.62,156.19
             232.36,156.49 232.09,156.84 231.80,157.22
             231.50,157.59 231.30,158.00 231.17,158.44
             231.05,158.88 231.00,159.35 231.00,159.86
             231.00,161.21 231.45,162.33 232.34,163.20 Z
           M 241.78,160.14
           C 241.64,160.42 241.35,160.70 240.89,160.95
             239.77,161.60 238.72,161.92 237.75,161.92
             237.00,161.92 236.30,161.64 235.64,161.08
             234.98,160.52 234.66,159.66 234.66,158.50
             234.66,157.26 235.20,156.20 236.28,155.33
             237.38,154.45 239.28,153.55 242.00,152.62
             242.00,152.62 242.00,158.75 242.00,158.75
             242.00,159.40 241.93,159.86 241.78,160.14 Z
           M 269.11,161.83
           C 268.11,161.83 267.45,161.68 267.12,161.38
             266.81,161.06 266.66,160.42 266.66,159.44
             266.66,159.44 266.66,145.00 266.66,145.00
             266.66,145.00 260.00,145.00 260.00,145.00
             260.00,145.00 260.00,146.12 260.00,146.12
             261.27,146.18 262.09,146.37 262.45,146.70
             262.82,147.03 263.00,147.70 263.00,148.70
             263.00,148.70 263.00,158.36 263.00,158.36
             263.00,159.09 262.81,159.71 262.44,160.22
             262.07,160.73 261.62,161.10 261.08,161.33
             260.55,161.56 260.07,161.71 259.66,161.80
             259.25,161.88 258.89,161.92 258.58,161.92
             257.79,161.92 257.10,161.61 256.52,160.98
             255.94,160.35 255.66,159.59 255.66,158.72
             255.66,158.72 255.66,145.00 255.66,145.00
             255.66,145.00 250.00,145.00 250.00,145.00
             250.00,145.00 250.00,146.00 250.00,146.00
             250.77,146.05 251.30,146.27 251.58,146.64
             251.86,147.01 252.00,147.67 252.00,148.62
             252.00,148.62 252.00,158.97 252.00,158.97
             252.00,160.65 252.46,161.99 253.39,163.00
             254.32,164.00 255.55,164.50 257.09,164.50
             257.57,164.50 258.05,164.44 258.52,164.31
             258.99,164.20 259.39,164.07 259.70,163.94
             260.02,163.80 260.38,163.58 260.78,163.27
             261.19,162.95 261.47,162.73 261.64,162.58
             261.80,162.42 262.09,162.11 262.48,161.62
             262.89,161.15 263.13,160.86 263.22,160.77
             263.22,160.77 263.22,164.36 263.22,164.36
             263.22,164.36 263.39,164.45 263.39,164.45
             265.10,163.91 267.08,163.40 269.33,162.92
             269.33,162.92 269.33,161.83 269.33,161.83
             269.33,161.83 269.11,161.83 269.11,161.83 Z
           M 272.62,162.47
           C 272.94,162.76 273.53,163.11 274.41,163.50
             272.81,164.64 271.68,165.62 271.00,166.42
             270.33,167.23 270.00,168.05 270.00,168.88
             270.00,170.01 270.78,170.98 272.34,171.78
             273.91,172.59 275.79,173.00 277.97,173.00
             280.71,173.00 283.27,172.30 285.64,170.89
             288.02,169.48 289.20,167.74 289.20,165.66
             289.20,164.36 288.81,163.32 288.03,162.52
             287.26,161.71 286.08,161.29 284.48,161.23
             284.48,161.23 278.44,161.00 278.44,161.00
             275.98,160.93 274.75,160.61 274.75,160.05
             274.75,159.68 275.06,159.25 275.69,158.75
             276.32,158.25 276.96,157.93 277.59,157.78
             279.01,157.93 279.91,158.00 280.28,158.00
             282.19,158.00 283.84,157.38 285.25,156.14
             286.66,154.89 287.36,153.27 287.36,151.28
             287.36,150.09 287.08,148.88 286.53,147.64
             286.53,147.64 290.20,147.64 290.20,147.64
             290.20,147.64 290.20,146.00 290.20,146.00
             290.20,146.00 286.72,146.00 286.72,146.00
             285.84,146.00 284.73,145.75 283.39,145.25
             282.05,144.75 280.79,144.50 279.61,144.50
             277.48,144.50 275.68,145.20 274.20,146.58
             272.73,147.95 272.00,149.62 272.00,151.59
             272.00,152.95 272.32,154.07 272.95,154.97
             273.59,155.87 274.64,156.67 276.12,157.39
             274.29,158.81 273.17,159.71 272.77,160.11
             272.37,160.50 272.17,160.92 272.17,161.39
             272.17,161.82 272.32,162.18 272.62,162.47 Z
           M 283.06,164.14
           C 284.86,164.14 286.13,164.30 286.88,164.62
             287.62,164.96 288.00,165.52 288.00,166.33
             288.00,167.61 287.27,168.65 285.80,169.45
             284.33,170.27 282.39,170.67 280.00,170.67
             277.89,170.67 276.20,170.37 274.92,169.77
             273.65,169.17 273.02,168.38 273.02,167.41
             273.02,166.91 273.16,166.42 273.45,165.95
             273.75,165.48 274.41,164.71 275.42,163.62
             277.34,163.97 279.88,164.14 283.06,164.14 Z
           M 283.05,155.86
           C 282.42,156.57 281.56,156.92 280.47,156.92
             279.27,156.92 278.16,156.36 277.16,155.23
             276.16,154.11 275.66,152.30 275.66,149.81
             275.66,148.56 275.96,147.59 276.58,146.88
             277.19,146.16 278.05,145.80 279.14,145.80
             280.12,145.80 280.95,146.09 281.64,146.69
             282.34,147.27 282.84,148.00 283.16,148.88
             283.47,149.74 283.69,150.52 283.81,151.20
             283.94,151.89 284.00,152.48 284.00,152.97
             284.00,154.19 283.68,155.15 283.05,155.86 Z
           M 300.91,144.95
           C 300.16,144.65 299.37,144.50 298.52,144.50
             296.92,144.50 295.60,145.00 294.56,145.98
             293.52,146.98 293.00,148.24 293.00,149.78
             293.00,150.97 293.39,152.03 294.17,152.97
             294.95,153.90 296.16,154.87 297.78,155.88
             297.78,155.88 300.00,157.28 300.00,157.28
             301.33,158.12 302.00,159.18 302.00,160.45
             302.00,161.38 301.71,162.12 301.12,162.67
             300.55,163.23 299.78,163.50 298.81,163.50
             297.38,163.50 296.25,162.92 295.44,161.77
             294.88,160.95 294.41,159.56 294.00,157.58
             294.00,157.58 293.05,157.58 293.05,157.58
             293.05,157.58 293.05,164.23 293.05,164.23
             293.05,164.23 293.83,164.23 293.83,164.23
             294.05,163.87 294.35,163.69 294.75,163.69
             295.00,163.69 295.66,163.82 296.72,164.09
             297.79,164.36 298.64,164.50 299.28,164.50
             300.85,164.50 302.20,163.96 303.33,162.88
             304.45,161.79 305.02,160.51 305.02,159.02
             305.02,157.98 304.77,157.07 304.30,156.30
             303.83,155.52 302.88,154.74 301.47,153.97
             301.47,153.97 297.33,151.27 297.33,151.27
             296.22,150.56 295.67,149.59 295.67,148.38
             295.67,147.53 295.95,146.84 296.50,146.31
             297.05,145.77 297.76,145.50 298.62,145.50
             299.76,145.50 300.66,145.90 301.33,146.69
             301.99,147.48 302.55,148.82 303.00,150.70
             303.00,150.70 304.00,150.70 304.00,150.70
             304.00,150.70 303.73,145.00 303.73,145.00
             303.73,145.00 303.00,145.00 303.00,145.00
             302.54,145.26 302.30,145.39 302.27,145.39
             302.11,145.39 301.66,145.25 300.91,144.95 Z
           M 313.44,134.11
           C 311.74,134.83 309.93,135.46 308.00,136.00
             308.00,136.00 308.00,137.00 308.00,137.00
             308.12,136.97 308.30,136.95 308.52,136.95
             309.12,136.95 309.52,137.11 309.70,137.42
             309.90,137.73 310.00,138.35 310.00,139.30
             310.00,139.30 310.00,161.83 310.00,161.83
             310.00,162.46 310.77,163.07 312.33,163.64
             313.89,164.21 315.56,164.50 317.34,164.50
             320.25,164.50 322.69,163.46 324.67,161.39
             326.66,159.31 327.66,156.75 327.66,153.70
             327.66,151.10 326.92,148.92 325.45,147.16
             323.98,145.39 322.16,144.50 319.98,144.50
             318.59,144.50 317.30,144.84 316.11,145.50
             314.93,146.17 314.11,147.01 313.66,148.03
             313.66,148.03 313.66,134.20 313.66,134.20
             313.66,134.20 313.44,134.11 313.44,134.11 Z
           M 315.02,148.08
           C 315.93,147.41 316.98,147.08 318.17,147.08
             319.96,147.08 321.38,147.86 322.42,149.42
             323.47,150.98 324.00,153.07 324.00,155.67
             324.00,158.06 323.48,159.91 322.45,161.23
             321.42,162.55 319.96,163.20 318.08,163.20
             316.89,163.20 315.85,163.00 314.97,162.58
             314.09,162.16 313.66,161.68 313.66,161.14
             313.66,161.14 313.66,150.30 313.66,150.30
             313.66,149.48 314.11,148.73 315.02,148.08 Z
           M 349.11,161.83
           C 348.11,161.83 347.45,161.68 347.12,161.38
             346.81,161.06 346.66,160.42 346.66,159.44
             346.66,159.44 346.66,145.00 346.66,145.00
             346.66,145.00 340.00,145.00 340.00,145.00
             340.00,145.00 340.00,146.12 340.00,146.12
             341.27,146.18 342.09,146.37 342.45,146.70
             342.82,147.03 343.00,147.70 343.00,148.70
             343.00,148.70 343.00,158.36 343.00,158.36
             343.00,159.09 342.81,159.71 342.44,160.22
             342.07,160.73 341.62,161.10 341.08,161.33
             340.55,161.56 340.07,161.71 339.66,161.80
             339.25,161.88 338.89,161.92 338.58,161.92
             337.79,161.92 337.10,161.61 336.52,160.98
             335.94,160.35 335.66,159.59 335.66,158.72
             335.66,158.72 335.66,145.00 335.66,145.00
             335.66,145.00 330.00,145.00 330.00,145.00
             330.00,145.00 330.00,146.00 330.00,146.00
             330.77,146.05 331.30,146.27 331.58,146.64
             331.86,147.01 332.00,147.67 332.00,148.62
             332.00,148.62 332.00,158.97 332.00,158.97
             332.00,160.65 332.46,161.99 333.39,163.00
             334.32,164.00 335.55,164.50 337.09,164.50
             337.57,164.50 338.05,164.44 338.52,164.31
             338.99,164.20 339.39,164.07 339.70,163.94
             340.02,163.80 340.38,163.58 340.78,163.27
             341.19,162.95 341.47,162.73 341.64,162.58
             341.80,162.42 342.09,162.11 342.48,161.62
             342.89,161.15 343.13,160.86 343.22,160.77
             343.22,160.77 343.22,164.36 343.22,164.36
             343.22,164.36 343.39,164.45 343.39,164.45
             345.10,163.91 347.08,163.40 349.33,162.92
             349.33,162.92 349.33,161.83 349.33,161.83
             349.33,161.83 349.11,161.83 349.11,161.83 Z
           M 364.73,147.64
           C 365.04,147.35 365.19,146.95 365.19,146.44
             365.19,145.82 364.98,145.35 364.56,145.02
             364.14,144.67 363.56,144.50 362.81,144.50
             361.93,144.50 361.11,144.78 360.36,145.34
             359.62,145.91 358.72,146.92 357.66,148.38
             357.66,148.38 357.66,144.58 357.66,144.58
             357.66,144.58 357.44,144.50 357.44,144.50
             355.47,145.26 353.33,146.00 351.03,146.70
             351.03,146.70 351.03,147.38 351.03,147.38
             351.57,147.27 352.07,147.22 352.53,147.22
             353.08,147.22 353.46,147.41 353.67,147.78
             353.89,148.16 354.00,148.80 354.00,149.72
             354.00,149.72 354.00,160.12 354.00,160.12
             354.00,161.18 353.84,161.86 353.52,162.17
             353.19,162.48 352.35,162.75 351.00,163.00
             351.00,163.00 351.00,164.00 351.00,164.00
             351.00,164.00 360.66,164.00 360.66,164.00
             360.66,164.00 360.66,163.00 360.66,163.00
             359.46,162.95 358.66,162.71 358.25,162.30
             357.85,161.88 357.66,161.07 357.66,159.88
             357.66,159.88 357.66,150.50 357.66,150.50
             357.66,149.84 358.02,149.10 358.73,148.30
             359.45,147.48 360.10,147.08 360.67,147.08
             360.87,147.08 361.28,147.25 361.91,147.58
             362.54,147.91 363.07,148.08 363.50,148.08
             364.02,148.08 364.43,147.93 364.73,147.64 Z
           M 368.62,162.47
           C 368.94,162.76 369.53,163.11 370.41,163.50
             368.81,164.64 367.68,165.62 367.00,166.42
             366.33,167.23 366.00,168.05 366.00,168.88
             366.00,170.01 366.78,170.98 368.34,171.78
             369.91,172.59 371.79,173.00 373.97,173.00
             376.71,173.00 379.27,172.30 381.64,170.89
             384.02,169.48 385.20,167.74 385.20,165.66
             385.20,164.36 384.81,163.32 384.03,162.52
             383.26,161.71 382.08,161.29 380.48,161.23
             380.48,161.23 374.44,161.00 374.44,161.00
             371.98,160.93 370.75,160.61 370.75,160.05
             370.75,159.68 371.06,159.25 371.69,158.75
             372.32,158.25 372.96,157.93 373.59,157.78
             375.01,157.93 375.91,158.00 376.28,158.00
             378.19,158.00 379.84,157.38 381.25,156.14
             382.66,154.89 383.36,153.27 383.36,151.28
             383.36,150.09 383.08,148.88 382.53,147.64
             382.53,147.64 386.20,147.64 386.20,147.64
             386.20,147.64 386.20,146.00 386.20,146.00
             386.20,146.00 382.72,146.00 382.72,146.00
             381.84,146.00 380.73,145.75 379.39,145.25
             378.05,144.75 376.79,144.50 375.61,144.50
             373.48,144.50 371.68,145.20 370.20,146.58
             368.73,147.95 368.00,149.62 368.00,151.59
             368.00,152.95 368.32,154.07 368.95,154.97
             369.59,155.87 370.64,156.67 372.12,157.39
             370.29,158.81 369.17,159.71 368.77,160.11
             368.37,160.50 368.17,160.92 368.17,161.39
             368.17,161.82 368.32,162.18 368.62,162.47 Z
           M 379.06,164.14
           C 380.86,164.14 382.13,164.30 382.88,164.62
             383.62,164.96 384.00,165.52 384.00,166.33
             384.00,167.61 383.27,168.65 381.80,169.45
             380.33,170.27 378.39,170.67 376.00,170.67
             373.89,170.67 372.20,170.37 370.92,169.77
             369.65,169.17 369.02,168.38 369.02,167.41
             369.02,166.91 369.16,166.42 369.45,165.95
             369.75,165.48 370.41,164.71 371.42,163.62
             373.34,163.97 375.88,164.14 379.06,164.14 Z
           M 379.05,155.86
           C 378.42,156.57 377.56,156.92 376.47,156.92
             375.27,156.92 374.16,156.36 373.16,155.23
             372.16,154.11 371.66,152.30 371.66,149.81
             371.66,148.56 371.96,147.59 372.58,146.88
             373.19,146.16 374.05,145.80 375.14,145.80
             376.12,145.80 376.95,146.09 377.64,146.69
             378.34,147.27 378.84,148.00 379.16,148.88
             379.47,149.74 379.69,150.52 379.81,151.20
             379.94,151.89 380.00,152.48 380.00,152.97
             380.00,154.19 379.68,155.15 379.05,155.86 Z
           M 416.61,152.00
           C 416.29,149.49 415.52,147.62 414.31,146.38
             413.11,145.12 411.43,144.50 409.25,144.50
             406.61,144.50 404.41,145.43 402.64,147.30
             400.88,149.16 400.00,151.63 400.00,154.70
             400.00,157.70 400.77,160.09 402.30,161.86
             403.84,163.62 405.84,164.50 408.30,164.50
             410.34,164.50 412.14,163.87 413.72,162.61
             415.30,161.35 416.54,159.53 417.42,157.16
             417.42,157.16 416.73,156.84 416.73,156.84
             415.70,158.48 414.68,159.64 413.66,160.33
             412.63,161.02 411.44,161.36 410.06,161.36
             409.29,161.36 408.55,161.23 407.84,160.95
             407.14,160.68 406.45,160.23 405.77,159.58
             405.08,158.93 404.52,157.96 404.08,156.66
             403.65,155.36 403.41,153.80 403.36,152.00
             403.36,152.00 416.61,152.00 416.61,152.00 Z
           M 408.00,146.14
           C 409.32,146.14 410.28,146.48 410.88,147.14
             411.48,147.80 411.93,148.98 412.22,150.70
             412.22,150.70 403.44,150.70 403.44,150.70
             403.89,147.66 405.41,146.14 408.00,146.14 Z
           M 422.70,160.47
           C 422.23,160.95 422.00,161.52 422.00,162.19
             422.00,162.81 422.22,163.36 422.67,163.81
             423.13,164.27 423.67,164.50 424.30,164.50
             424.95,164.50 425.52,164.27 426.00,163.81
             426.49,163.36 426.73,162.81 426.73,162.19
             426.73,161.52 426.50,160.95 426.03,160.47
             425.56,159.98 425.00,159.73 424.34,159.73
             423.72,159.73 423.17,159.98 422.70,160.47 Z
           M 444.94,145.00
           C 444.94,145.00 444.94,146.00 444.94,146.00
             446.28,146.12 446.95,146.55 446.95,147.31
             446.95,147.73 446.86,148.14 446.69,148.55
             446.69,148.55 442.44,159.22 442.44,159.22
             442.44,159.22 438.05,148.67 438.05,148.67
             437.80,148.10 437.67,147.59 437.67,147.16
             437.67,146.77 437.81,146.50 438.09,146.33
             438.38,146.16 438.90,146.05 439.64,146.00
             439.64,146.00 439.64,145.00 439.64,145.00
             439.64,145.00 431.22,145.00 431.22,145.00
             431.22,145.00 431.22,146.00 431.22,146.00
             432.05,146.05 432.68,146.33 433.11,146.83
             433.54,147.32 434.21,148.62 435.12,150.73
             435.12,150.73 440.28,162.56 440.28,162.56
             440.72,163.86 441.09,164.50 441.41,164.50
             441.63,164.50 442.04,163.81 442.61,162.44
             442.61,162.44 448.11,149.22 448.11,149.22
             448.68,147.84 449.12,146.98 449.44,146.62
             449.76,146.26 450.25,146.05 450.91,146.00
             450.91,146.00 450.91,145.00 450.91,145.00
             450.91,145.00 444.94,145.00 444.94,145.00 Z
           M 456.81,159.81
           C 456.27,160.38 456.00,161.04 456.00,161.80
             456.00,162.54 456.26,163.17 456.78,163.70
             457.31,164.23 457.94,164.50 458.67,164.50
             459.43,164.50 460.09,164.23 460.66,163.70
             461.22,163.17 461.50,162.54 461.50,161.80
             461.50,161.04 461.22,160.38 460.67,159.81
             460.13,159.24 459.48,158.95 458.72,158.95
             458.00,158.95 457.36,159.24 456.81,159.81 Z
           M 69.41,18.92
           C 70.01,18.92 70.43,19.09 70.66,19.42
             70.88,19.75 71.00,20.35 71.00,21.23
             71.00,21.23 71.00,39.27 71.00,39.27
             71.00,40.28 70.80,40.96 70.42,41.31
             70.05,41.67 69.27,41.90 68.08,42.00
             68.08,42.00 68.08,43.00 68.08,43.00
             68.08,43.00 76.23,43.00 76.23,43.00
             76.23,43.00 76.23,42.00 76.23,42.00
             75.38,41.93 74.83,41.73 74.59,41.41
             74.35,41.09 74.23,40.40 74.23,39.34
             74.23,39.34 74.23,16.41 74.23,16.41
             74.23,16.41 74.08,16.33 74.08,16.33
             72.55,16.84 70.52,17.40 68.00,18.00
             68.00,18.00 68.00,19.00 68.00,19.00
             68.43,18.95 68.89,18.92 69.41,18.92 Z
           M 82.80,29.34
           C 82.93,29.65 83.00,30.18 83.00,30.94
             83.00,30.94 83.00,38.98 83.00,38.98
             83.00,40.23 82.83,41.03 82.48,41.38
             82.14,41.72 81.31,41.93 80.00,42.00
             80.00,42.00 80.00,43.00 80.00,43.00
             80.00,43.00 88.23,43.00 88.23,43.00
             88.23,43.00 88.23,42.00 88.23,42.00
             87.35,41.91 86.79,41.69 86.56,41.34
             86.34,40.99 86.23,40.17 86.23,38.88
             86.23,38.88 86.23,26.11 86.23,26.11
             86.23,26.11 86.08,26.00 86.08,26.00
             84.22,26.84 82.53,27.51 81.00,28.00
             81.00,28.00 81.00,29.00 81.00,29.00
             81.35,28.92 81.73,28.88 82.12,28.88
             82.44,28.88 82.66,29.03 82.80,29.34 Z
           M 82.67,17.70
           C 82.22,18.08 82.00,18.53 82.00,19.06
             82.00,19.59 82.22,20.05 82.66,20.44
             83.09,20.81 83.63,21.00 84.27,21.00
             84.84,21.00 85.32,20.82 85.70,20.45
             86.09,20.08 86.28,19.62 86.28,19.06
             86.28,18.53 86.09,18.08 85.70,17.70
             85.32,17.32 84.84,17.12 84.27,17.12
             83.66,17.12 83.13,17.32 82.67,17.70 Z
           M 92.59,28.16
           C 93.12,28.16 93.49,28.32 93.69,28.64
             93.89,28.96 94.00,29.57 94.00,30.45
             94.00,30.45 94.00,39.31 94.00,39.31
             94.00,40.34 93.87,41.03 93.61,41.38
             93.35,41.72 92.81,41.93 92.00,42.00
             92.00,42.00 92.00,43.00 92.00,43.00
             92.00,43.00 99.23,43.00 99.23,43.00
             99.23,43.00 99.23,42.00 99.23,42.00
             98.46,41.93 97.94,41.76 97.66,41.50
             97.38,41.23 97.23,40.77 97.23,40.11
             97.23,40.11 97.23,29.88 97.23,29.88
             98.16,29.15 98.89,28.66 99.42,28.42
             99.96,28.17 100.55,28.05 101.19,28.05
             103.06,28.05 104.00,29.20 104.00,31.52
             104.00,31.52 104.00,39.00 104.00,39.00
             104.00,40.12 103.86,40.88 103.59,41.28
             103.33,41.69 102.80,41.93 102.00,42.00
             102.00,42.00 102.00,43.00 102.00,43.00
             102.00,43.00 109.23,43.00 109.23,43.00
             109.23,43.00 109.23,42.00 109.23,42.00
             108.42,41.91 107.88,41.71 107.62,41.41
             107.36,41.09 107.23,40.49 107.23,39.59
             107.23,39.59 107.23,31.25 107.23,31.25
             107.23,29.59 106.83,28.31 106.02,27.39
             105.21,26.46 104.10,26.00 102.69,26.00
             101.79,26.00 100.96,26.19 100.20,26.56
             99.45,26.93 98.43,27.65 97.12,28.73
             97.12,28.73 97.12,26.06 97.12,26.06
             97.12,26.06 96.84,26.00 96.84,26.00
             95.21,26.36 93.45,26.70 91.56,27.05
             91.56,27.05 91.56,28.05 91.56,28.05
             91.77,28.12 92.11,28.16 92.59,28.16 Z
           M 129.39,40.64
           C 128.50,40.64 127.92,40.51 127.64,40.23
             127.37,39.96 127.23,39.40 127.23,38.55
             127.23,38.55 127.23,26.00 127.23,26.00
             127.23,26.00 122.00,26.00 122.00,26.00
             122.00,26.00 122.00,27.11 122.00,27.11
             122.84,27.16 123.38,27.33 123.62,27.61
             123.88,27.89 124.00,28.47 124.00,29.34
             124.00,29.34 124.00,37.64 124.00,37.64
             124.00,38.28 123.83,38.81 123.48,39.25
             123.14,39.69 122.72,40.01 122.22,40.20
             121.73,40.40 121.29,40.54 120.91,40.61
             120.53,40.68 120.21,40.72 119.94,40.72
             119.20,40.72 118.56,40.45 118.03,39.91
             117.50,39.36 117.23,38.70 117.23,37.94
             117.23,37.94 117.23,26.00 117.23,26.00
             117.23,26.00 112.00,26.00 112.00,26.00
             112.00,26.00 112.00,27.00 112.00,27.00
             112.77,27.05 113.30,27.24 113.58,27.56
             113.86,27.88 114.00,28.45 114.00,29.27
             114.00,29.27 114.00,38.17 114.00,38.17
             114.00,39.63 114.41,40.80 115.25,41.69
             116.09,42.56 117.22,43.00 118.62,43.00
             119.05,43.00 119.48,42.95 119.91,42.84
             120.34,42.74 120.70,42.63 120.98,42.52
             121.27,42.39 121.59,42.20 121.95,41.94
             122.33,41.67 122.59,41.47 122.73,41.34
             122.89,41.21 123.15,40.93 123.52,40.50
             123.89,40.07 124.11,39.82 124.19,39.73
             124.19,39.73 124.19,42.89 124.19,42.89
             124.19,42.89 124.34,42.97 124.34,42.97
             125.86,42.52 127.61,42.11 129.58,41.72
             129.58,41.72 129.58,40.64 129.58,40.64
             129.58,40.64 129.39,40.64 129.39,40.64 Z
           M 139.62,30.95
           C 138.46,29.32 137.88,28.26 137.88,27.78
             137.88,27.28 138.42,27.02 139.52,27.00
             139.52,27.00 139.52,26.00 139.52,26.00
             139.52,26.00 131.64,26.00 131.64,26.00
             131.64,26.00 131.64,27.00 131.64,27.00
             132.15,27.00 132.52,27.04 132.77,27.11
             133.00,27.18 133.30,27.38 133.67,27.69
             134.05,27.99 134.46,28.48 134.91,29.14
             134.91,29.14 138.48,34.28 138.48,34.28
             138.48,34.28 134.16,40.17 134.16,40.17
             133.62,40.91 133.19,41.39 132.84,41.61
             132.50,41.82 132.01,41.95 131.38,42.00
             131.38,42.00 131.38,43.00 131.38,43.00
             131.38,43.00 136.89,43.00 136.89,43.00
             136.89,43.00 136.89,42.00 136.89,42.00
             135.88,42.00 135.38,41.79 135.38,41.36
             135.38,41.12 135.62,40.63 136.12,39.89
             136.12,39.89 139.12,35.50 139.12,35.50
             139.12,35.50 142.59,40.50 142.59,40.50
             142.74,40.72 142.81,40.93 142.81,41.14
             142.81,41.45 142.72,41.66 142.53,41.77
             142.34,41.87 141.93,41.95 141.30,42.00
             141.30,42.00 141.30,43.00 141.30,43.00
             141.30,43.00 148.94,43.00 148.94,43.00
             148.94,43.00 148.94,42.00 148.94,42.00
             148.35,42.00 147.83,41.84 147.36,41.52
             146.89,41.20 146.38,40.64 145.81,39.86
             145.81,39.86 140.95,32.86 140.95,32.86
             140.95,32.86 144.11,28.58 144.11,28.58
             144.87,27.58 145.89,27.05 147.19,27.00
             147.19,27.00 147.19,26.00 147.19,26.00
             147.19,26.00 141.19,26.00 141.19,26.00
             141.19,26.00 141.19,27.00 141.19,27.00
             142.20,27.07 142.70,27.34 142.70,27.78
             142.70,27.97 142.63,28.20 142.48,28.47
             142.35,28.73 142.19,28.98 142.00,29.23
             141.81,29.48 141.52,29.86 141.14,30.34
             140.77,30.82 140.44,31.27 140.16,31.67
             140.16,31.67 139.62,30.95 139.62,30.95 Z
           M 179.39,40.64
           C 178.50,40.64 177.92,40.51 177.64,40.23
             177.37,39.96 177.23,39.40 177.23,38.55
             177.23,38.55 177.23,26.00 177.23,26.00
             177.23,26.00 172.00,26.00 172.00,26.00
             172.00,26.00 172.00,27.11 172.00,27.11
             172.84,27.16 173.38,27.33 173.62,27.61
             173.88,27.89 174.00,28.47 174.00,29.34
             174.00,29.34 174.00,37.64 174.00,37.64
             174.00,38.28 173.83,38.81 173.48,39.25
             173.14,39.69 172.72,40.01 172.22,40.20
             171.73,40.40 171.29,40.54 170.91,40.61
             170.53,40.68 170.21,40.72 169.94,40.72
             169.20,40.72 168.56,40.45 168.03,39.91
             167.50,39.36 167.23,38.70 167.23,37.94
             167.23,37.94 167.23,26.00 167.23,26.00
             167.23,26.00 162.00,26.00 162.00,26.00
             162.00,26.00 162.00,27.00 162.00,27.00
             162.77,27.05 163.30,27.24 163.58,27.56
             163.86,27.88 164.00,28.45 164.00,29.27
             164.00,29.27 164.00,38.17 164.00,38.17
             164.00,39.63 164.41,40.80 165.25,41.69
             166.09,42.56 167.22,43.00 168.62,43.00
             169.05,43.00 169.48,42.95 169.91,42.84
             170.34,42.74 170.70,42.63 170.98,42.52
             171.27,42.39 171.59,42.20 171.95,41.94
             172.33,41.67 172.59,41.47 172.73,41.34
             172.89,41.21 173.15,40.93 173.52,40.50
             173.89,40.07 174.11,39.82 174.19,39.73
             174.19,39.73 174.19,42.89 174.19,42.89
             174.19,42.89 174.34,42.97 174.34,42.97
             175.86,42.52 177.61,42.11 179.58,41.72
             179.58,41.72 179.58,40.64 179.58,40.64
             179.58,40.64 179.39,40.64 179.39,40.64 Z
           M 189.84,26.39
           C 189.06,26.13 188.23,26.00 187.34,26.00
             185.80,26.00 184.52,26.43 183.52,27.28
             182.50,28.14 182.00,29.23 182.00,30.56
             182.00,31.55 182.35,32.44 183.05,33.22
             183.74,33.99 184.92,34.80 186.58,35.64
             186.58,35.64 188.91,36.81 188.91,36.81
             190.30,37.52 191.00,38.40 191.00,39.45
             191.00,40.23 190.70,40.86 190.09,41.31
             189.49,41.77 188.68,42.00 187.66,42.00
             186.26,42.00 185.17,41.52 184.39,40.55
             183.86,39.87 183.39,38.71 183.00,37.06
             183.00,37.06 182.05,37.06 182.05,37.06
             182.05,37.06 182.05,42.78 182.05,42.78
             182.05,42.78 182.83,42.78 182.83,42.78
             183.00,42.39 183.27,42.19 183.61,42.19
             183.86,42.19 184.52,42.32 185.58,42.59
             186.65,42.87 187.50,43.00 188.14,43.00
             189.65,43.00 190.95,42.53 192.03,41.59
             193.11,40.66 193.66,39.55 193.66,38.27
             193.66,37.39 193.48,36.63 193.12,35.98
             192.77,35.34 191.88,34.70 190.44,34.06
             190.44,34.06 186.09,31.80 186.09,31.80
             184.94,31.21 184.36,30.42 184.36,29.41
             184.36,28.70 184.64,28.12 185.22,27.67
             185.80,27.23 186.55,27.00 187.45,27.00
             188.64,27.00 189.58,27.34 190.27,28.00
             190.95,28.66 191.53,29.77 192.00,31.34
             192.00,31.34 193.00,31.34 193.00,31.34
             193.00,31.34 192.73,26.00 192.73,26.00
             192.73,26.00 192.00,26.00 192.00,26.00
             191.54,26.51 191.30,26.77 191.27,26.77
             191.10,26.77 190.62,26.64 189.84,26.39 Z
           M 211.67,33.00
           C 211.39,30.66 210.72,28.91 209.66,27.75
             208.59,26.59 207.10,26.00 205.17,26.00
             202.84,26.00 200.89,26.84 199.33,28.50
             197.77,30.16 197.00,32.36 197.00,35.09
             197.00,37.52 197.68,39.45 199.03,40.88
             200.38,42.29 202.16,43.00 204.34,43.00
             206.13,43.00 207.73,42.48 209.12,41.45
             210.52,40.41 211.61,38.92 212.39,36.97
             212.39,36.97 211.78,36.73 211.78,36.73
             210.88,38.00 209.97,38.89 209.06,39.42
             208.16,39.95 207.11,40.22 205.89,40.22
             205.21,40.22 204.56,40.12 203.94,39.91
             203.31,39.70 202.70,39.34 202.09,38.84
             201.49,38.34 200.99,37.59 200.61,36.59
             200.23,35.59 200.02,34.40 199.97,33.00
             199.97,33.00 211.67,33.00 211.67,33.00 Z
           M 204.08,27.44
           C 205.23,27.44 206.08,27.76 206.61,28.41
             207.15,29.04 207.55,30.20 207.80,31.86
             207.80,31.86 200.05,31.86 200.05,31.86
             200.45,28.91 201.80,27.44 204.08,27.44 Z
           M 226.48,28.89
           C 226.75,28.62 226.89,28.25 226.89,27.78
             226.89,27.22 226.70,26.78 226.33,26.47
             225.96,26.16 225.45,26.00 224.80,26.00
             224.02,26.00 223.29,26.25 222.62,26.75
             221.97,27.24 221.17,28.12 220.23,29.39
             220.23,29.39 220.23,26.08 220.23,26.08
             220.23,26.08 220.05,26.00 220.05,26.00
             218.30,26.68 216.41,27.33 214.38,27.95
             214.38,27.95 214.38,28.53 214.38,28.53
             214.85,28.45 215.30,28.41 215.70,28.41
             216.19,28.41 216.53,28.57 216.72,28.89
             216.91,29.21 217.00,29.77 217.00,30.56
             217.00,30.56 217.00,39.53 217.00,39.53
             217.00,40.44 216.89,41.02 216.67,41.28
             216.46,41.54 215.91,41.78 215.00,42.00
             215.00,42.00 215.00,43.00 215.00,43.00
             215.00,43.00 223.23,43.00 223.23,43.00
             223.23,43.00 223.23,42.00 223.23,42.00
             222.04,41.95 221.23,41.75 220.83,41.39
             220.43,41.03 220.23,40.34 220.23,39.31
             220.23,39.31 220.23,31.22 220.23,31.22
             220.23,30.65 220.55,30.02 221.19,29.33
             221.82,28.63 222.39,28.28 222.91,28.28
             223.08,28.28 223.45,28.45 224.00,28.78
             224.56,29.12 225.03,29.28 225.41,29.28
             225.86,29.28 226.22,29.15 226.48,28.89 Z
           M 241.55,42.31
           C 241.82,42.56 242.33,42.87 243.08,43.22
             241.61,44.13 240.56,44.91 239.94,45.56
             239.31,46.22 239.00,46.88 239.00,47.53
             239.00,48.49 239.70,49.30 241.09,49.98
             242.49,50.66 244.16,51.00 246.11,51.00
             248.54,51.00 250.80,50.42 252.91,49.27
             255.01,48.12 256.06,46.69 256.06,44.98
             256.06,43.88 255.64,42.99 254.80,42.31
             253.96,41.62 252.84,41.26 251.42,41.20
             251.42,41.20 246.48,41.00 246.48,41.00
             244.45,40.91 243.44,40.48 243.44,39.73
             243.44,39.27 243.70,38.71 244.22,38.06
             244.75,37.41 245.27,36.98 245.80,36.80
             246.95,36.93 247.68,37.00 247.98,37.00
             249.60,37.00 251.00,36.48 252.19,35.45
             253.38,34.41 253.97,33.06 253.97,31.41
             253.97,30.44 253.72,29.45 253.23,28.44
             253.23,28.44 257.06,28.44 257.06,28.44
             257.06,28.44 257.06,27.00 257.06,27.00
             257.06,27.00 253.89,27.00 253.89,27.00
             253.10,27.00 252.09,26.84 250.88,26.50
             249.66,26.17 248.51,26.00 247.44,26.00
             245.63,26.00 244.11,26.55 242.86,27.66
             241.62,28.75 241.00,30.09 241.00,31.66
             241.00,32.77 241.27,33.70 241.83,34.44
             242.39,35.18 243.32,35.84 244.61,36.44
             243.00,38.19 242.02,39.30 241.67,39.78
             241.33,40.26 241.16,40.79 241.16,41.36
             241.16,41.73 241.29,42.05 241.55,42.31 Z
           M 250.23,43.78
           C 251.97,43.78 253.20,43.91 253.92,44.17
             254.64,44.43 255.00,44.88 255.00,45.52
             255.00,46.54 254.33,47.36 253.00,48.00
             251.68,48.63 249.93,48.95 247.75,48.95
             245.91,48.95 244.44,48.71 243.33,48.23
             242.21,47.77 241.66,47.14 241.66,46.36
             241.66,45.96 241.80,45.57 242.09,45.19
             242.38,44.81 243.03,44.19 244.03,43.33
             245.58,43.63 247.65,43.78 250.23,43.78 Z
           M 250.23,35.14
           C 249.72,35.71 249.02,36.00 248.14,36.00
             247.17,36.00 246.27,35.54 245.45,34.62
             244.64,33.71 244.23,32.23 244.23,30.20
             244.23,29.25 244.48,28.50 244.97,27.95
             245.47,27.41 246.16,27.14 247.06,27.14
             247.85,27.14 248.53,27.38 249.09,27.84
             249.66,28.30 250.06,28.88 250.31,29.56
             250.56,30.24 250.74,30.85 250.84,31.39
             250.95,31.93 251.00,32.40 251.00,32.78
             251.00,33.77 250.74,34.56 250.23,35.14 Z
           M 270.48,28.89
           C 270.75,28.62 270.89,28.25 270.89,27.78
             270.89,27.22 270.70,26.78 270.33,26.47
             269.96,26.16 269.45,26.00 268.80,26.00
             268.02,26.00 267.29,26.25 266.62,26.75
             265.97,27.24 265.17,28.12 264.23,29.39
             264.23,29.39 264.23,26.08 264.23,26.08
             264.23,26.08 264.05,26.00 264.05,26.00
             262.30,26.68 260.41,27.33 258.38,27.95
             258.38,27.95 258.38,28.53 258.38,28.53
             258.85,28.45 259.30,28.41 259.70,28.41
             260.19,28.41 260.53,28.57 260.72,28.89
             260.91,29.21 261.00,29.77 261.00,30.56
             261.00,30.56 261.00,39.53 261.00,39.53
             261.00,40.44 260.89,41.02 260.67,41.28
             260.46,41.54 259.91,41.78 259.00,42.00
             259.00,42.00 259.00,43.00 259.00,43.00
             259.00,43.00 267.23,43.00 267.23,43.00
             267.23,43.00 267.23,42.00 267.23,42.00
             266.04,41.95 265.23,41.75 264.83,41.39
             264.43,41.03 264.23,40.34 264.23,39.31
             264.23,39.31 264.23,31.22 264.23,31.22
             264.23,30.65 264.55,30.02 265.19,29.33
             265.82,28.63 266.39,28.28 266.91,28.28
             267.08,28.28 267.45,28.45 268.00,28.78
             268.56,29.12 269.03,29.28 269.41,29.28
             269.86,29.28 270.22,29.15 270.48,28.89 Z
           M 275.30,28.38
           C 273.77,29.95 273.00,31.98 273.00,34.47
             273.00,36.91 273.80,38.94 275.39,40.56
             276.98,42.19 278.91,43.00 281.19,43.00
             283.47,43.00 285.42,42.16 287.05,40.47
             288.68,38.78 289.50,36.69 289.50,34.19
             289.50,31.82 288.72,29.87 287.17,28.33
             285.63,26.78 283.66,26.00 281.27,26.00
             278.82,26.00 276.83,26.79 275.30,28.38 Z
           M 277.67,28.67
           C 278.46,27.65 279.50,27.14 280.80,27.14
             282.33,27.14 283.58,27.91 284.55,29.45
             285.52,31.00 286.00,32.98 286.00,35.42
             286.00,37.45 285.61,39.02 284.83,40.16
             284.05,41.29 282.99,41.86 281.62,41.86
             280.10,41.86 278.87,40.98 277.92,39.20
             276.97,37.42 276.50,35.26 276.50,32.72
             276.50,31.04 276.89,29.70 277.67,28.67 Z
           M 310.39,40.64
           C 309.50,40.64 308.92,40.51 308.64,40.23
             308.37,39.96 308.23,39.40 308.23,38.55
             308.23,38.55 308.23,26.00 308.23,26.00
             308.23,26.00 303.00,26.00 303.00,26.00
             303.00,26.00 303.00,27.11 303.00,27.11
             303.84,27.16 304.38,27.33 304.62,27.61
             304.88,27.89 305.00,28.47 305.00,29.34
             305.00,29.34 305.00,37.64 305.00,37.64
             305.00,38.28 304.83,38.81 304.48,39.25
             304.14,39.69 303.72,40.01 303.22,40.20
             302.73,40.40 302.29,40.54 301.91,40.61
             301.53,40.68 301.21,40.72 300.94,40.72
             300.20,40.72 299.56,40.45 299.03,39.91
             298.50,39.36 298.23,38.70 298.23,37.94
             298.23,37.94 298.23,26.00 298.23,26.00
             298.23,26.00 293.00,26.00 293.00,26.00
             293.00,26.00 293.00,27.00 293.00,27.00
             293.77,27.05 294.30,27.24 294.58,27.56
             294.86,27.88 295.00,28.45 295.00,29.27
             295.00,29.27 295.00,38.17 295.00,38.17
             295.00,39.63 295.41,40.80 296.25,41.69
             297.09,42.56 298.22,43.00 299.62,43.00
             300.05,43.00 300.48,42.95 300.91,42.84
             301.34,42.74 301.70,42.63 301.98,42.52
             302.27,42.39 302.59,42.20 302.95,41.94
             303.33,41.67 303.59,41.47 303.73,41.34
             303.89,41.21 304.15,40.93 304.52,40.50
             304.89,40.07 305.11,39.82 305.19,39.73
             305.19,39.73 305.19,42.89 305.19,42.89
             305.19,42.89 305.34,42.97 305.34,42.97
             306.86,42.52 308.61,42.11 310.58,41.72
             310.58,41.72 310.58,40.64 310.58,40.64
             310.58,40.64 310.39,40.64 310.39,40.64 Z
           M 313.75,28.25
           C 314.26,28.25 314.59,28.39 314.75,28.66
             314.91,28.92 315.00,29.48 315.00,30.33
             315.00,30.33 315.00,47.47 315.00,47.47
             315.00,48.43 314.83,49.06 314.50,49.38
             314.16,49.70 313.44,49.91 312.33,50.00
             312.33,50.00 312.33,51.00 312.33,51.00
             312.33,51.00 321.23,51.00 321.23,51.00
             321.23,51.00 321.23,49.97 321.23,49.97
             319.96,49.95 319.14,49.77 318.78,49.44
             318.41,49.10 318.23,48.36 318.23,47.22
             318.23,47.22 318.23,41.45 318.23,41.45
             318.91,42.06 319.52,42.47 320.08,42.69
             320.64,42.90 321.34,43.00 322.17,43.00
             324.45,43.00 326.36,42.10 327.91,40.30
             329.46,38.50 330.23,36.27 330.23,33.62
             330.23,31.41 329.63,29.59 328.44,28.16
             327.24,26.72 325.71,26.00 323.84,26.00
             321.77,26.00 319.90,26.91 318.23,28.72
             318.23,28.72 318.23,26.06 318.23,26.06
             318.23,26.06 318.00,26.00 318.00,26.00
             316.12,26.53 314.46,26.96 313.00,27.28
             313.00,27.28 313.00,28.28 313.00,28.28
             313.18,28.26 313.43,28.25 313.75,28.25 Z
           M 319.53,29.08
           C 320.41,28.55 321.30,28.28 322.20,28.28
             323.66,28.28 324.82,28.90 325.69,30.14
             326.56,31.37 327.00,33.01 327.00,35.05
             327.00,37.08 326.56,38.73 325.69,39.98
             324.82,41.23 323.69,41.86 322.28,41.86
             321.38,41.86 320.47,41.60 319.58,41.08
             318.68,40.55 318.23,40.02 318.23,39.48
             318.23,39.48 318.23,30.66 318.23,30.66
             318.23,30.12 318.66,29.60 319.53,29.08 Z" />             

</svg>
