<?xml version="1.0" standalone="yes"?>
<svg version="1.1" xmlns="http://www.w3.org/2000/svg" xmlns:xlink="http://www.w3.org/1999/xlink" xmlns:ev="http://www.w3.org/2001/xml-events" width="310" height="310">
<path style="fill:#000000; stroke:none;" d="M10 10L10 80L80 80L80 10L10 10M110 10L110 20L100 20L100 30L90 30L90 40L100 40L100 60L110 60L110 80L120 80L120 90L130 90L130 100L120 100L120 110L110 110L110 100L100 100L100 70L90 70L90 90L50 90L50 110L60 110L60 100L80 100L80 110L70 110L70 120L50 120L50 130L30 130L30 140L10 140L10 180L20 180L20 190L10 190L10 200L20 200L20 210L10 210L10 220L20 220L20 210L30 210L30 220L50 220L50 200L40 200L40 210L30 210L30 200L20 200L20 190L30 190L30 180L50 180L50 170L70 170L70 180L80 180L80 190L60 190L60 220L80 220L80 210L70 210L70 200L80 200L80 190L90 190L90 180L100 180L100 170L130 170L130 180L120 180L120 200L130 200L130 210L110 210L110 220L120 220L120 230L100 230L100 210L90 210L90 260L100 260L100 250L110 250L110 270L90 270L90 300L130 300L130 290L150 290L150 300L160 300L160 290L170 290L170 300L220 300L220 270L230 270L230 260L250 260L250 270L240 270L240 280L230 280L230 290L240 290L240 300L270 300L270 290L260 290L260 280L270 280L270 270L260 270L260 260L270 260L270 250L260 250L260 240L270 240L270 230L280 230L280 240L290 240L290 250L300 250L300 220L270 220L270 230L260 230L260 210L270 210L270 190L280 190L280 210L290 210L290 200L300 200L300 170L290 170L290 160L300 160L300 130L290 130L290 120L300 120L300 100L290 100L290 110L270 110L270 100L280 100L280 90L270 90L270 100L260 100L260 110L250 110L250 130L260 130L260 150L280 150L280 180L270 180L270 190L260 190L260 210L220 210L220 200L200 200L200 210L190 210L190 190L180 190L180 180L190 180L190 170L200 170L200 180L220 180L220 190L230 190L230 200L250 200L250 180L240 180L240 130L210 130L210 120L200 120L200 130L210 130L210 140L200 140L200 150L220 150L220 160L210 160L210 170L200 170L200 160L180 160L180 150L190 150L190 110L170 110L170 100L160 100L160 110L150 110L150 100L140 100L140 90L130 90L130 80L140 80L140 60L150 60L150 80L160 80L160 70L170 70L170 80L180 80L180 100L190 100L190 90L200 90L200 100L210 100L210 110L220 110L220 120L240 120L240 90L200 90L200 70L210 70L210 80L220 80L220 60L210 60L210 50L220 50L220 40L190 40L190 50L180 50L180 30L190 30L190 20L200 20L200 30L210 30L210 10L160 10L160 20L180 20L180 30L170 30L170 40L160 40L160 30L150 30L150 20L140 20L140 30L150 30L150 40L130 40L130 30L120 30L120 40L130 40L130 60L110 60L110 40L100 40L100 30L110 30L110 20L120 20L120 10L110 10M230 10L230 80L300 80L300 10L230 10M70 20L70 70L20 70L20 20L70 20M290 20L290 70L240 70L240 20L290 20M30 30L30 60L60 60L60 30L30 30M250 30L250 60L280 60L280 30L250 30M160 40L160 50L150 50L150 40L160 40M180 50L180 60L190 60L190 80L180 80L180 60L170 60L170 50L180 50M130 70L130 80L120 80L120 70L130 70M10 90L10 130L20 130L20 100L30 100L30 110L40 110L40 90L10 90M230 100L230 110L220 110L220 100L230 100M110 110L110 120L100 120L100 110L110 110M150 110L150 120L140 120L140 110L150 110M270 110L270 120L280 120L280 140L290 140L290 150L280 150L280 140L270 140L270 120L260 120L260 110L270 110M90 120L90 130L70 130L70 140L90 140L90 150L100 150L100 160L80 160L80 170L90 170L90 180L80 180L80 170L70 170L70 160L80 160L80 150L70 150L70 140L60 140L60 160L50 160L50 170L40 170L40 140L60 140L60 130L70 130L70 120L90 120M130 120L130 130L150 130L150 150L170 150L170 140L160 140L160 130L170 130L170 120L180 120L180 130L170 130L170 140L180 140L180 150L170 150L170 160L160 160L160 190L150 190L150 200L140 200L140 190L150 190L150 180L140 180L140 170L130 170L130 160L120 160L120 150L130 150L130 130L120 130L120 120L130 120M110 130L110 140L100 140L100 130L110 130M30 150L30 180L20 180L20 150L30 150M140 150L140 160L150 160L150 150L140 150M230 160L230 170L220 170L220 160L230 160M250 160L250 170L270 170L270 160L250 160M180 170L180 180L170 180L170 170L180 170M290 180L290 190L280 190L280 180L290 180M100 190L100 200L110 200L110 190L100 190M150 210L150 230L170 230L170 250L160 250L160 270L150 270L150 280L140 280L140 270L150 270L150 260L140 260L140 250L130 250L130 260L120 260L120 250L110 250L110 240L120 240L120 230L130 230L130 210L150 210M180 210L180 220L170 220L170 210L180 210M210 210L210 220L200 220L200 230L190 230L190 240L210 240L210 260L220 260L220 270L210 270L210 260L200 260L200 280L190 280L190 290L180 290L180 280L190 280L190 240L180 240L180 230L190 230L190 220L200 220L200 210L210 210M250 220L250 250L220 250L220 220L250 220M10 230L10 300L80 300L80 230L10 230M140 230L140 240L150 240L150 230L140 230M230 230L230 240L240 240L240 230L230 230M70 240L70 290L20 290L20 240L70 240M120 240L120 250L130 250L130 240L120 240M30 250L30 280L60 280L60 250L30 250M180 260L180 270L170 270L170 260L180 260M120 270L120 280L130 280L130 290L120 290L120 280L110 280L110 290L100 290L100 280L110 280L110 270L120 270M290 270L290 280L280 280L280 300L300 300L300 290L290 290L290 280L300 280L300 270L290 270M250 280L250 290L240 290L240 280L250 280z"/>
</svg>
