<?xml version="1.0" encoding="UTF-8" standalone="no"?>
<svg
   xmlns:dc="http://purl.org/dc/elements/1.1/"
   xmlns:cc="http://creativecommons.org/ns#"
   xmlns:rdf="http://www.w3.org/1999/02/22-rdf-syntax-ns#"
   xmlns:svg="http://www.w3.org/2000/svg"
   xmlns="http://www.w3.org/2000/svg"
   xmlns:sodipodi="http://sodipodi.sourceforge.net/DTD/sodipodi-0.dtd"
   xmlns:inkscape="http://www.inkscape.org/namespaces/inkscape"
   width="450"
   height="450"
   id="svg2"
   version="1.1"
   inkscape:version="0.48.3.1 r9886"
   sodipodi:docname="qr-code.svg">
  <metadata
     id="metadata64">
    <rdf:RDF>
      <cc:Work
         rdf:about="">
        <dc:format>image/svg+xml</dc:format>
        <dc:type
           rdf:resource="http://purl.org/dc/dcmitype/StillImage" />
      </cc:Work>
    </rdf:RDF>
  </metadata>
  <defs
     id="defs62">
    <filter
       id="filter3041"
       inkscape:menu-tooltip="Make the lightest parts of the object progressively transparent"
       inkscape:menu="Transparency utilities"
       inkscape:label="Light eraser"
       height="1"
       width="1"
       y="0"
       x="0"
       color-interpolation-filters="sRGB">
      <feColorMatrix
         id="feColorMatrix3043"
         result="result14"
         type="luminanceToAlpha"
         in="SourceGraphic" />
      <feComposite
         id="feComposite3045"
         in2="result14"
         in="SourceGraphic"
         result="fbSourceGraphic"
         operator="out" />
      <feBlend
         id="feBlend3047"
         in2="fbSourceGraphic"
         mode="normal"
         result="result15" />
    </filter>
  </defs>
  <sodipodi:namedview
     pagecolor="#ffffff"
     bordercolor="#666666"
     borderopacity="1"
     objecttolerance="10"
     gridtolerance="10"
     guidetolerance="10"
     inkscape:pageopacity="0"
     inkscape:pageshadow="2"
     inkscape:window-width="711"
     inkscape:window-height="480"
     id="namedview60"
     showgrid="false"
     inkscape:zoom="0.52444444"
     inkscape:cx="225"
     inkscape:cy="225"
     inkscape:window-x="0"
     inkscape:window-y="0"
     inkscape:window-maximized="0"
     inkscape:current-layer="svg2" />
  <path
     style="fill:#010101;stroke:none;filter:url(#filter3041)"
     d="M40 40L40 110L110 110L110 40L40 40M120 40L120 70L130 70L130 50L140 50L140 90L120 90L120 130L130 130L130 140L100 140L100 150L130 150L130 170L110 170L110 160L100 160L100 170L110 170L110 180L90 180L90 190L80 190L80 180L60 180L60 170L50 170L50 160L40 160L40 210L60 210L60 220L50 220L50 230L60 230L60 220L90 220L90 230L110 230L110 240L80 240L80 230L70 230L70 240L60 240L60 260L50 260L50 280L40 280L40 330L50 330L50 300L60 300L60 310L70 310L70 300L90 300L90 290L120 290L120 300L150 300L150 310L160 310L160 300L150 300L150 290L190 290L190 280L200 280L200 290L210 290L210 310L220 310L220 320L200 320L200 300L190 300L190 320L180 320L180 330L160 330L160 320L150 320L150 330L120 330L120 340L130 340L130 360L120 360L120 390L130 390L130 400L140 400L140 390L130 390L130 370L140 370L140 380L150 380L150 370L140 370L140 340L150 340L150 350L160 350L160 340L170 340L170 380L160 380L160 390L150 390L150 410L160 410L160 400L170 400L170 390L180 390L180 410L190 410L190 400L200 400L200 390L210 390L210 400L220 400L220 410L230 410L230 400L240 400L240 390L250 390L250 370L260 370L260 360L270 360L270 370L290 370L290 380L270 380L270 390L260 390L260 400L250 400L250 410L280 410L280 390L290 390L290 410L310 410L310 400L340 400L340 390L330 390L330 370L340 370L340 380L350 380L350 410L410 410L410 360L400 360L400 350L410 350L410 340L400 340L400 350L390 350L390 360L380 360L380 370L390 370L390 380L400 380L400 400L370 400L370 390L360 390L360 380L370 380L370 350L380 350L380 340L370 340L370 320L400 320L400 310L410 310L410 300L400 300L400 280L410 280L410 250L400 250L400 280L370 280L370 300L380 300L380 310L370 310L370 320L330 320L330 310L320 310L320 330L310 330L310 300L350 300L350 280L360 280L360 270L350 270L350 260L360 260L360 250L370 250L370 260L390 260L390 240L400 240L400 230L410 230L410 220L390 220L390 210L400 210L400 200L380 200L380 220L360 220L360 210L370 210L370 190L380 190L380 180L390 180L390 190L410 190L410 180L390 180L390 170L410 170L410 140L390 140L390 150L380 150L380 130L410 130L410 120L380 120L380 130L360 130L360 120L330 120L330 50L290 50L290 40L280 40L280 50L250 50L250 40L230 40L230 50L220 50L220 60L210 60L210 40L190 40L190 50L200 50L200 60L210 60L210 70L190 70L190 80L220 80L220 90L180 90L180 80L170 80L170 70L180 70L180 50L170 50L170 40L160 40L160 50L140 50L140 40L120 40M340 40L340 110L410 110L410 40L340 40z"
     id="path6" />
  <path
     style="fill:#ffffff; stroke:none;"
     d="M50 50L50 100L100 100L100 50L50 50M160 50L160 60L170 60L170 50L160 50M350 50L350 100L400 100L400 50L350 50z"
     id="path8" />
  <path
     style="fill:#010101; stroke:none;"
     d="M60 60L60 90L90 90L90 60L60 60z"
     id="path10" />
  <path
     style="fill:#ffffff; stroke:none;"
     d="M240 60L240 70L250 70L250 80L240 80L240 90L220 90L220 100L210 100L210 110L200 110L200 100L190 100L190 120L180 120L180 100L170 100L170 130L140 130L140 120L160 120L160 100L150 100L150 110L140 110L140 100L130 100L130 130L140 130L140 140L150 140L150 150L140 150L140 160L150 160L150 170L130 170L130 180L170 180L170 190L160 190L160 200L150 200L150 190L130 190L130 200L120 200L120 210L100 210L100 200L110 200L110 190L100 190L100 200L80 200L80 190L70 190L70 200L60 200L60 180L50 180L50 200L60 200L60 210L70 210L70 200L80 200L80 210L100 210L100 220L110 220L110 230L130 230L130 210L150 210L150 230L140 230L140 240L150 240L150 250L130 250L130 260L120 260L120 270L100 270L100 280L120 280L120 290L130 290L130 270L140 270L140 280L160 280L160 270L150 270L150 260L160 260L160 250L170 250L170 260L180 260L180 240L160 240L160 230L170 230L170 220L160 220L160 210L180 210L180 200L190 200L190 220L180 220L180 230L200 230L200 240L220 240L220 230L210 230L210 220L220 220L220 200L230 200L230 190L240 190L240 200L260 200L260 210L290 210L290 240L280 240L280 220L270 220L270 230L260 230L260 220L250 220L250 210L230 210L230 270L220 270L220 310L240 310L240 300L270 300L270 310L250 310L250 320L220 320L220 330L210 330L210 340L180 340L180 360L190 360L190 350L210 350L210 360L200 360L200 370L190 370L190 380L180 380L180 390L200 390L200 370L210 370L210 390L220 390L220 400L230 400L230 390L240 390L240 380L230 380L230 370L210 370L210 360L230 360L230 350L240 350L240 360L260 360L260 350L270 350L270 360L300 360L300 350L320 350L320 340L300 340L300 330L290 330L290 320L300 320L300 310L290 310L290 300L300 300L300 290L340 290L340 280L320 280L320 270L310 270L310 260L330 260L330 270L340 270L340 260L350 260L350 250L330 250L330 240L320 240L320 250L290 250L290 240L310 240L310 230L300 230L300 220L320 220L320 230L330 230L330 220L350 220L350 210L360 210L360 200L350 200L350 210L340 210L340 200L330 200L330 190L340 190L340 180L350 180L350 190L360 190L360 180L370 180L370 170L390 170L390 160L400 160L400 150L390 150L390 160L370 160L370 170L360 170L360 160L350 160L350 170L340 170L340 130L320 130L320 100L310 100L310 110L300 110L300 100L290 100L290 110L300 110L300 120L290 120L290 130L280 130L280 100L270 100L270 110L260 110L260 90L250 90L250 80L260 80L260 70L270 70L270 80L280 80L280 90L290 90L290 80L280 80L280 70L290 70L290 60L240 60z"
     id="path12" />
  <path
     style="fill:#010101; stroke:none;"
     d="M360 60L360 90L390 90L390 60L360 60z"
     id="path14" />
  <path
     style="fill:#ffffff; stroke:none;"
     d="M150 70L150 80L160 80L160 90L170 90L170 80L160 80L160 70L150 70M220 70L220 80L230 80L230 70L220 70M300 70L300 90L320 90L320 80L310 80L310 70L300 70z"
     id="path16" />
  <path
     style="fill:#010101; stroke:none;"
     d="M240 90L240 110L250 110L250 120L240 120L240 140L250 140L250 150L260 150L260 140L270 140L270 150L300 150L300 160L280 160L280 170L270 170L270 160L240 160L240 150L230 150L230 170L220 170L220 140L230 140L230 130L220 130L220 120L210 120L210 130L200 130L200 120L190 120L190 130L170 130L170 140L160 140L160 150L150 150L150 160L160 160L160 150L170 150L170 140L180 140L180 160L190 160L190 170L200 170L200 180L180 180L180 170L170 170L170 180L180 180L180 190L170 190L170 200L180 200L180 190L190 190L190 200L200 200L200 210L210 210L210 190L230 190L230 180L240 180L240 170L270 170L270 180L250 180L250 190L260 190L260 200L270 200L270 180L290 180L290 190L300 190L300 210L320 210L320 220L330 220L330 210L320 210L320 180L340 180L340 170L330 170L330 160L320 160L320 150L330 150L330 140L320 140L320 130L310 130L310 120L300 120L300 130L310 130L310 140L280 140L280 130L270 130L270 120L260 120L260 110L250 110L250 90L240 90M220 100L220 110L230 110L230 100L220 100M60 120L60 130L40 130L40 140L50 140L50 150L80 150L80 170L90 170L90 150L80 150L80 140L70 140L70 130L90 130L90 120L60 120M100 120L100 130L110 130L110 120L100 120z"
     id="path18" />
  <path
     style="fill:#ffffff; stroke:none;"
     d="M250 120L250 130L260 130L260 120L250 120M190 130L190 140L200 140L200 170L210 170L210 140L200 140L200 130L190 130M350 140L350 150L360 150L360 140L350 140z"
     id="path20" />
  <path
     style="fill:#010101; stroke:none;"
     d="M350 170L350 180L360 180L360 170L350 170z"
     id="path22" />
  <path
     style="fill:#ffffff; stroke:none;"
     d="M200 180L200 190L210 190L210 180L200 180z"
     id="path24" />
  <path
     style="fill:#010101; stroke:none;"
     d="M240 220L240 260L260 260L260 250L270 250L270 260L280 260L280 270L290 270L290 250L270 250L270 240L260 240L260 230L250 230L250 220L240 220z"
     id="path26" />
  <path
     style="fill:#ffffff; stroke:none;"
     d="M380 220L380 230L360 230L360 240L370 240L370 250L380 250L380 240L390 240L390 220L380 220z"
     id="path28" />
  <path
     style="fill:#010101; stroke:none;"
     d="M40 240L40 250L50 250L50 240L40 240z"
     id="path30" />
  <path
     style="fill:#ffffff; stroke:none;"
     d="M70 250L70 260L80 260L80 290L90 290L90 260L80 260L80 250L70 250M100 250L100 260L110 260L110 250L100 250M210 250L210 260L190 260L190 270L170 270L170 280L190 280L190 270L210 270L210 260L220 260L220 250L210 250z"
     id="path32" />
  <path
     style="fill:#010101; stroke:none;"
     d="M230 270L230 290L250 290L250 280L260 280L260 290L280 290L280 300L290 300L290 290L280 290L280 280L260 280L260 270L250 270L250 280L240 280L240 270L230 270M300 270L300 280L310 280L310 270L300 270z"
     id="path34" />
  <path
     style="fill:#ffffff; stroke:none;"
     d="M60 280L60 290L70 290L70 280L60 280M380 290L380 300L390 300L390 290L380 290z"
     id="path36" />
  <path
     style="fill:#010101; stroke:none;"
     d="M100 300L100 310L80 310L80 320L60 320L60 330L80 330L80 320L100 320L100 330L110 330L110 320L120 320L120 310L110 310L110 300L100 300z"
     id="path38" />
  <path
     style="fill:#ffffff; stroke:none;"
     d="M100 310L100 320L110 320L110 310L100 310z"
     id="path40" />
  <path
     style="fill:#010101; stroke:none;"
     d="M130 310L130 320L140 320L140 310L130 310M280 310L280 320L290 320L290 310L280 310z"
     id="path42" />
  <path
     style="fill:#ffffff; stroke:none;"
     d="M190 320L190 330L200 330L200 320L190 320z"
     id="path44" />
  <path
     style="fill:#010101; stroke:none;"
     d="M260 320L260 330L220 330L220 350L230 350L230 340L240 340L240 350L260 350L260 330L270 330L270 320L260 320z"
     id="path46" />
  <path
     style="fill:#ffffff; stroke:none;"
     d="M330 330L330 360L360 360L360 330L330 330z"
     id="path48" />
  <path
     style="fill:#010101; stroke:none;"
     d="M40 340L40 410L110 410L110 340L40 340M270 340L270 350L290 350L290 340L270 340M340 340L340 350L350 350L350 340L340 340z"
     id="path50" />
  <path
     style="fill:#ffffff; stroke:none;"
     d="M50 350L50 400L100 400L100 350L50 350z"
     id="path52" />
  <path
     style="fill:#010101; stroke:none;"
     d="M60 360L60 390L90 390L90 360L60 360z"
     id="path54" />
  <path
     style="fill:#ffffff; stroke:none;"
     d="M300 370L300 380L290 380L290 390L300 390L300 400L310 400L310 390L320 390L320 380L310 380L310 370L300 370M350 370L350 380L360 380L360 370L350 370z"
     id="path56" />
  <path
     style="fill:#010101; stroke:none;"
     d="M220 380L220 390L230 390L230 380L220 380z"
     id="path58" />
</svg>
